<?xml version="1.0" encoding="UTF-8"?>
<!-- BC Place Stadium — traced from bc-place-reference.png. Regenerate: node scripts/generate-bc-place-svg.mjs -->
<svg xmlns="http://www.w3.org/2000/svg" viewBox="0 0 800 640" role="img" aria-label="BC Place Stadium seating chart">
  <rect width="800" height="640" fill="#f1f5f9" rx="12"/>
  <rect x="262" y="192" width="276" height="226" fill="#16a34a" rx="4"/>
  <circle cx="400" cy="305" r="34" fill="none" stroke="white" stroke-width="1.5" opacity="0.9"/>
  <line x1="400" y1="192" x2="400" y2="418" stroke="white" stroke-width="1.5" opacity="0.9"/>
  <path id="section-450" data-section="450" data-zone="cat-4" d="M 498.13 178.08 L 528.17 140.14 A 348.16 174.08 0 0 1 573.92 151.20 L 533.16 186.54 A 266.56 133.28 0 0 0 498.13 178.08 Z" fill="#dbeafe" stroke="#94a3b8" stroke-width="0.75"/>
  <text x="533.7" y="163.6" text-anchor="middle" font-size="7" fill="#0c4a6e" pointer-events="none">450</text>
  <path id="section-451" data-section="451" data-zone="cat-4" d="M 536.89 187.64 L 578.79 152.63 A 348.16 174.08 0 0 1 620.38 167.23 L 568.73 198.82 A 266.56 133.28 0 0 0 536.89 187.64 Z" fill="#dbeafe" stroke="#94a3b8" stroke-width="0.75"/>
  <text x="576.7" y="176.2" text-anchor="middle" font-size="7" fill="#0c4a6e" pointer-events="none">451</text>
  <path id="section-452" data-section="452" data-zone="cat-4" d="M 572.05 200.20 L 624.72 169.04 A 348.16 174.08 0 0 1 661.04 186.81 L 599.86 213.81 A 266.56 133.28 0 0 0 572.05 200.20 Z" fill="#dbeafe" stroke="#94a3b8" stroke-width="0.75"/>
  <text x="615.0" y="192.2" text-anchor="middle" font-size="7" fill="#0c4a6e" pointer-events="none">452</text>
  <path id="section-453" data-section="453" data-zone="cat-4" d="M 602.69 215.44 L 664.74 188.94 A 348.16 174.08 0 0 1 694.84 209.42 L 625.73 231.12 A 266.56 133.28 0 0 0 602.69 215.44 Z" fill="#dbeafe" stroke="#94a3b8" stroke-width="0.75"/>
  <text x="647.7" y="211.0" text-anchor="middle" font-size="7" fill="#0c4a6e" pointer-events="none">453</text>
  <path id="section-454" data-section="454" data-zone="cat-4" d="M 628.01 232.96 L 697.80 211.82 A 348.16 174.08 0 0 1 720.89 234.46 L 645.68 250.29 A 266.56 133.28 0 0 0 628.01 232.96 Z" fill="#dbeafe" stroke="#94a3b8" stroke-width="0.75"/>
  <text x="673.8" y="232.2" text-anchor="middle" font-size="7" fill="#0c4a6e" pointer-events="none">454</text>
  <path id="section-401" data-section="401" data-zone="cat-3" d="M 647.32 252.29 L 723.04 237.07 A 348.16 174.08 0 0 1 738.50 261.27 L 659.16 270.82 A 266.56 133.28 0 0 0 647.32 252.29 Z" fill="#dbeafe" stroke="#94a3b8" stroke-width="0.75"/>
  <text x="692.8" y="255.2" text-anchor="middle" font-size="7" fill="#0c4a6e" pointer-events="none">401</text>
  <path id="section-402" data-section="402" data-zone="cat-3" d="M 660.14 272.93 L 739.78 264.03 A 348.16 174.08 0 0 1 747.21 289.16 L 665.83 292.17 A 266.56 133.28 0 0 0 660.14 272.93 Z" fill="#dbeafe" stroke="#94a3b8" stroke-width="0.75"/>
  <text x="704.1" y="279.5" text-anchor="middle" font-size="7" fill="#0c4a6e" pointer-events="none">402</text>
  <path id="section-403" data-section="403" data-zone="cat-3" d="M 666.12 294.33 L 747.58 291.98 A 348.16 174.08 0 0 1 746.80 317.38 L 665.52 313.78 A 266.56 133.28 0 0 0 666.12 294.33 Z" fill="#dbeafe" stroke="#94a3b8" stroke-width="0.75"/>
  <text x="707.3" y="304.4" text-anchor="middle" font-size="7" fill="#0c4a6e" pointer-events="none">403</text>
  <path id="section-404" data-section="404" data-zone="cat-3" d="M 665.10 315.93 L 746.25 320.20 A 348.16 174.08 0 0 1 737.27 345.20 L 658.22 335.08 A 266.56 133.28 0 0 0 665.10 315.93 Z" fill="#dbeafe" stroke="#94a3b8" stroke-width="0.75"/>
  <text x="702.5" y="329.2" text-anchor="middle" font-size="7" fill="#0c4a6e" pointer-events="none">404</text>
  <path id="section-405" data-section="405" data-zone="cat-3" d="M 657.11 337.17 L 735.82 347.94 A 348.16 174.08 0 0 1 718.87 371.89 L 644.14 355.51 A 266.56 133.28 0 0 0 657.11 337.17 Z" fill="#dbeafe" stroke="#94a3b8" stroke-width="0.75"/>
  <text x="689.8" y="353.3" text-anchor="middle" font-size="7" fill="#0c4a6e" pointer-events="none">405</text>
  <path id="section-406" data-section="406" data-zone="cat-3" d="M 642.37 357.48 L 716.56 374.47 A 348.16 174.08 0 0 1 692.09 396.73 L 623.63 374.53 A 266.56 133.28 0 0 0 642.37 357.48 Z" fill="#dbeafe" stroke="#94a3b8" stroke-width="0.75"/>
  <text x="669.4" y="376.0" text-anchor="middle" font-size="7" fill="#0c4a6e" pointer-events="none">406</text>
  <path id="section-407" data-section="407" data-zone="cat-3" d="M 621.25 376.34 L 688.98 399.09 A 348.16 174.08 0 0 1 657.63 419.09 L 597.25 391.65 A 266.56 133.28 0 0 0 621.25 376.34 Z" fill="#dbeafe" stroke="#94a3b8" stroke-width="0.75"/>
  <text x="641.9" y="396.8" text-anchor="middle" font-size="7" fill="#0c4a6e" pointer-events="none">407</text>
  <path id="section-408" data-section="408" data-zone="cat-3" d="M 594.31 393.24 L 653.80 421.17 A 348.16 174.08 0 0 1 631.47 432.04 L 577.22 401.56 A 266.56 133.28 0 0 0 594.31 393.24 Z" fill="#dbeafe" stroke="#94a3b8" stroke-width="0.75"/>
  <text x="614.4" y="412.1" text-anchor="middle" font-size="7" fill="#0c4a6e" pointer-events="none">408</text>
  <path id="section-409" data-section="409" data-zone="cat-3" d="M 575.23 402.43 L 628.87 433.18 A 348.16 174.08 0 0 1 604.50 442.89 L 556.57 409.87 A 266.56 133.28 0 0 0 575.23 402.43 Z" fill="#dbeafe" stroke="#94a3b8" stroke-width="0.75"/>
  <text x="591.5" y="422.2" text-anchor="middle" font-size="7" fill="#0c4a6e" pointer-events="none">409</text>
  <path id="section-410" data-section="410" data-zone="cat-3" d="M 554.41 410.64 L 601.68 443.90 A 348.16 174.08 0 0 1 575.50 452.35 L 534.37 417.11 A 266.56 133.28 0 0 0 554.41 410.64 Z" fill="#dbeafe" stroke="#94a3b8" stroke-width="0.75"/>
  <text x="566.7" y="431.1" text-anchor="middle" font-size="7" fill="#0c4a6e" pointer-events="none">410</text>
  <path id="section-411" data-section="411" data-zone="cat-3" d="M 532.07 417.77 L 572.50 453.21 A 348.16 174.08 0 0 1 544.77 460.32 L 510.84 423.21 A 266.56 133.28 0 0 0 532.07 417.77 Z" fill="#dbeafe" stroke="#94a3b8" stroke-width="0.75"/>
  <text x="540.2" y="438.8" text-anchor="middle" font-size="7" fill="#0c4a6e" pointer-events="none">411</text>
  <path id="section-412" data-section="412" data-zone="cat-3" d="M 508.42 423.76 L 541.61 461.03 A 348.16 174.08 0 0 1 512.60 466.72 L 486.21 428.12 A 266.56 133.28 0 0 0 508.42 423.76 Z" fill="#dbeafe" stroke="#94a3b8" stroke-width="0.75"/>
  <text x="512.3" y="445.1" text-anchor="middle" font-size="7" fill="#0c4a6e" pointer-events="none">412</text>
  <path id="section-413" data-section="413" data-zone="cat-3" d="M 483.70 428.54 L 509.32 467.28 A 348.16 174.08 0 0 1 479.33 471.50 L 460.73 431.77 A 266.56 133.28 0 0 0 483.70 428.54 Z" fill="#dbeafe" stroke="#94a3b8" stroke-width="0.75"/>
  <text x="483.4" y="449.9" text-anchor="middle" font-size="7" fill="#0c4a6e" pointer-events="none">413</text>
  <path id="section-414" data-section="414" data-zone="cat-3" d="M 458.15 432.07 L 475.95 471.89 A 348.16 174.08 0 0 1 445.26 474.60 L 434.65 434.15 A 266.56 133.28 0 0 0 458.15 432.07 Z" fill="#dbeafe" stroke="#94a3b8" stroke-width="0.75"/>
  <text x="453.6" y="453.3" text-anchor="middle" font-size="7" fill="#0c4a6e" pointer-events="none">414</text>
  <path id="section-415" data-section="415" data-zone="cat-3" d="M 432.02 434.31 L 441.83 474.82 A 348.16 174.08 0 0 1 410.75 476.00 L 408.23 435.22 A 266.56 133.28 0 0 0 432.02 434.31 Z" fill="#dbeafe" stroke="#94a3b8" stroke-width="0.75"/>
  <text x="423.2" y="455.2" text-anchor="middle" font-size="7" fill="#0c4a6e" pointer-events="none">415</text>
  <path id="section-416" data-section="416" data-zone="cat-3" d="M 405.58 435.25 L 407.29 476.04 A 348.16 174.08 0 0 1 376.14 475.67 L 381.73 434.97 A 266.56 133.28 0 0 0 405.58 435.25 Z" fill="#dbeafe" stroke="#94a3b8" stroke-width="0.75"/>
  <text x="392.7" y="455.6" text-anchor="middle" font-size="7" fill="#0c4a6e" pointer-events="none">416</text>
  <path id="section-417" data-section="417" data-zone="cat-3" d="M 379.09 434.87 L 372.68 475.54 A 348.16 174.08 0 0 1 341.76 473.63 L 355.41 433.40 A 266.56 133.28 0 0 0 379.09 434.87 Z" fill="#dbeafe" stroke="#94a3b8" stroke-width="0.75"/>
  <text x="362.2" y="454.5" text-anchor="middle" font-size="7" fill="#0c4a6e" pointer-events="none">417</text>
  <path id="section-418" data-section="418" data-zone="cat-3" d="M 352.80 433.17 L 338.35 473.33 A 348.16 174.08 0 0 1 307.95 469.89 L 329.53 430.54 A 266.56 133.28 0 0 0 352.80 433.17 Z" fill="#dbeafe" stroke="#94a3b8" stroke-width="0.75"/>
  <text x="332.1" y="451.9" text-anchor="middle" font-size="7" fill="#0c4a6e" pointer-events="none">418</text>
  <path id="section-419" data-section="419" data-zone="cat-3" d="M 326.97 430.18 L 304.62 469.42 A 348.16 174.08 0 0 1 275.06 464.48 L 304.34 426.40 A 266.56 133.28 0 0 0 326.97 430.18 Z" fill="#dbeafe" stroke="#94a3b8" stroke-width="0.75"/>
  <text x="302.7" y="447.8" text-anchor="middle" font-size="7" fill="#0c4a6e" pointer-events="none">419</text>
  <path id="section-420" data-section="420" data-zone="cat-3" d="M 301.87 425.92 L 271.83 463.86 A 348.16 174.08 0 0 1 246.91 458.35 L 282.79 421.70 A 266.56 133.28 0 0 0 301.87 425.92 Z" fill="#dbeafe" stroke="#94a3b8" stroke-width="0.75"/>
  <text x="275.8" y="442.6" text-anchor="middle" font-size="7" fill="#0c4a6e" pointer-events="none">420</text>
  <path id="section-421" data-section="421" data-zone="cat-3" d="M 280.71 421.19 L 244.19 457.68 A 348.16 174.08 0 0 1 220.32 451.10 L 262.43 416.16 A 266.56 133.28 0 0 0 280.71 421.19 Z" fill="#dbeafe" stroke="#94a3b8" stroke-width="0.75"/>
  <text x="251.8" y="436.6" text-anchor="middle" font-size="7" fill="#0c4a6e" pointer-events="none">421</text>
  <path id="section-422" data-section="422" data-zone="cat-3" d="M 260.45 415.56 L 217.73 450.32 A 348.16 174.08 0 0 1 195.08 442.73 L 243.11 409.75 A 266.56 133.28 0 0 0 260.45 415.56 Z" fill="#dbeafe" stroke="#94a3b8" stroke-width="0.75"/>
  <text x="229.0" y="429.7" text-anchor="middle" font-size="7" fill="#0c4a6e" pointer-events="none">422</text>
  <path id="section-423" data-section="423" data-zone="cat-3" d="M 241.24 409.06 L 192.64 441.84 A 348.16 174.08 0 0 1 171.40 433.30 L 224.98 402.53 A 266.56 133.28 0 0 0 241.24 409.06 Z" fill="#dbeafe" stroke="#94a3b8" stroke-width="0.75"/>
  <text x="207.4" y="421.8" text-anchor="middle" font-size="7" fill="#0c4a6e" pointer-events="none">423</text>
  <path id="section-424" data-section="424" data-zone="cat-3" d="M 223.24 401.76 L 169.13 432.30 A 348.16 174.08 0 0 1 149.45 422.87 L 208.17 394.54 A 266.56 133.28 0 0 0 223.24 401.76 Z" fill="#dbeafe" stroke="#94a3b8" stroke-width="0.75"/>
  <text x="187.3" y="413.0" text-anchor="middle" font-size="7" fill="#0c4a6e" pointer-events="none">424</text>
  <path id="section-425" data-section="425" data-zone="cat-3" d="M 206.57 393.70 L 147.36 421.78 A 348.16 174.08 0 0 1 129.39 411.53 L 192.82 385.86 A 266.56 133.28 0 0 0 206.57 393.70 Z" fill="#dbeafe" stroke="#94a3b8" stroke-width="0.75"/>
  <text x="168.9" y="403.3" text-anchor="middle" font-size="7" fill="#0c4a6e" pointer-events="none">425</text>
  <path id="section-426" data-section="426" data-zone="cat-3" d="M 191.37 384.95 L 127.50 410.35 A 348.16 174.08 0 0 1 111.38 399.36 L 179.03 376.54 A 266.56 133.28 0 0 0 191.37 384.95 Z" fill="#dbeafe" stroke="#94a3b8" stroke-width="0.75"/>
  <text x="152.1" y="392.9" text-anchor="middle" font-size="7" fill="#0c4a6e" pointer-events="none">426</text>
  <path id="section-427" data-section="427" data-zone="cat-3" d="M 177.74 375.58 L 109.70 398.10 A 348.16 174.08 0 0 1 95.56 386.45 L 166.91 366.66 A 266.56 133.28 0 0 0 177.74 375.58 Z" fill="#dbeafe" stroke="#94a3b8" stroke-width="0.75"/>
  <text x="137.3" y="381.8" text-anchor="middle" font-size="7" fill="#0c4a6e" pointer-events="none">427</text>
  <path id="section-428" data-section="428" data-zone="cat-3" d="M 165.79 365.64 L 94.10 385.13 A 348.16 174.08 0 0 1 82.03 372.91 L 156.56 356.29 A 266.56 133.28 0 0 0 165.79 365.64 Z" fill="#dbeafe" stroke="#94a3b8" stroke-width="0.75"/>
  <text x="124.4" y="370.0" text-anchor="middle" font-size="7" fill="#0c4a6e" pointer-events="none">428</text>
  <path id="section-429" data-section="429" data-zone="cat-3" d="M 155.62 355.23 L 80.81 371.52 A 348.16 174.08 0 0 1 70.91 358.83 L 148.04 345.51 A 266.56 133.28 0 0 0 155.62 355.23 Z" fill="#dbeafe" stroke="#94a3b8" stroke-width="0.75"/>
  <text x="113.6" y="357.8" text-anchor="middle" font-size="7" fill="#0c4a6e" pointer-events="none">429</text>
  <path id="section-430" data-section="430" data-zone="cat-3" d="M 147.29 344.41 L 69.94 357.39 A 348.16 174.08 0 0 1 62.28 344.31 L 141.43 334.40 A 266.56 133.28 0 0 0 147.29 344.41 Z" fill="#dbeafe" stroke="#94a3b8" stroke-width="0.75"/>
  <text x="105.0" y="345.2" text-anchor="middle" font-size="7" fill="#0c4a6e" pointer-events="none">430</text>
  <path id="section-431" data-section="431" data-zone="cat-3" d="M 140.88 333.27 L 61.56 342.84 A 348.16 174.08 0 0 1 56.21 329.48 L 136.78 323.04 A 266.56 133.28 0 0 0 140.88 333.27 Z" fill="#dbeafe" stroke="#94a3b8" stroke-width="0.75"/>
  <text x="98.6" y="332.2" text-anchor="middle" font-size="7" fill="#0c4a6e" pointer-events="none">431</text>
  <path id="section-432" data-section="432" data-zone="cat-3" d="M 136.43 321.89 L 55.74 327.98 A 348.16 174.08 0 0 1 52.73 314.44 L 134.12 311.53 A 266.56 133.28 0 0 0 136.43 321.89 Z" fill="#dbeafe" stroke="#94a3b8" stroke-width="0.75"/>
  <text x="94.5" y="319.0" text-anchor="middle" font-size="7" fill="#0c4a6e" pointer-events="none">432</text>
  <path id="section-433" data-section="433" data-zone="cat-4" d="M 133.97 293.63 L 52.53 291.07 A 348.16 174.08 0 0 1 56.43 273.82 L 136.96 280.42 A 266.56 133.28 0 0 0 133.97 293.63 Z" fill="#dbeafe" stroke="#94a3b8" stroke-width="0.75"/>
  <text x="94.6" y="284.7" text-anchor="middle" font-size="7" fill="#0c4a6e" pointer-events="none">433</text>
  <path id="section-434" data-section="434" data-zone="cat-4" d="M 137.45 278.96 L 57.08 271.91 A 348.16 174.08 0 0 1 64.78 254.98 L 143.35 266.00 A 266.56 133.28 0 0 0 137.45 278.96 Z" fill="#dbeafe" stroke="#94a3b8" stroke-width="0.75"/>
  <text x="100.3" y="267.9" text-anchor="middle" font-size="7" fill="#0c4a6e" pointer-events="none">434</text>
  <path id="section-435" data-section="435" data-zone="cat-4" d="M 144.16 264.58 L 65.84 253.12 A 348.16 174.08 0 0 1 77.25 236.72 L 152.89 252.02 A 266.56 133.28 0 0 0 144.16 264.58 Z" fill="#dbeafe" stroke="#94a3b8" stroke-width="0.75"/>
  <text x="109.7" y="251.5" text-anchor="middle" font-size="7" fill="#0c4a6e" pointer-events="none">435</text>
  <path id="section-436" data-section="436" data-zone="cat-4" d="M 154.01 250.65 L 78.71 234.94 A 348.16 174.08 0 0 1 93.67 219.27 L 165.47 238.66 A 266.56 133.28 0 0 0 154.01 250.65 Z" fill="#dbeafe" stroke="#94a3b8" stroke-width="0.75"/>
  <text x="122.6" y="235.8" text-anchor="middle" font-size="7" fill="#0c4a6e" pointer-events="none">436</text>
  <path id="section-437" data-section="437" data-zone="cat-4" d="M 166.89 237.36 L 95.53 217.57 A 348.16 174.08 0 0 1 113.86 202.83 L 180.93 226.07 A 266.56 133.28 0 0 0 166.89 237.36 Z" fill="#dbeafe" stroke="#94a3b8" stroke-width="0.75"/>
  <text x="139.0" y="220.9" text-anchor="middle" font-size="7" fill="#0c4a6e" pointer-events="none">437</text>
  <path id="section-438" data-section="438" data-zone="cat-4" d="M 182.62 224.86 L 116.08 201.25 A 348.16 174.08 0 0 1 137.57 187.60 L 199.08 214.42 A 266.56 133.28 0 0 0 182.62 224.86 Z" fill="#dbeafe" stroke="#94a3b8" stroke-width="0.75"/>
  <text x="158.5" y="206.9" text-anchor="middle" font-size="7" fill="#0c4a6e" pointer-events="none">438</text>
  <path id="section-439" data-section="439" data-zone="cat-4" d="M 201.03 213.31 L 140.12 186.16 A 348.16 174.08 0 0 1 164.50 173.79 L 219.69 203.84 A 266.56 133.28 0 0 0 201.03 213.31 Z" fill="#dbeafe" stroke="#94a3b8" stroke-width="0.75"/>
  <text x="181.1" y="194.1" text-anchor="middle" font-size="7" fill="#0c4a6e" pointer-events="none">439</text>
  <path id="section-440" data-section="440" data-zone="cat-4" d="M 221.88 202.84 L 167.35 172.49 A 348.16 174.08 0 0 1 194.32 161.55 L 242.52 194.46 A 266.56 133.28 0 0 0 221.88 202.84 Z" fill="#dbeafe" stroke="#94a3b8" stroke-width="0.75"/>
  <text x="206.3" y="182.7" text-anchor="middle" font-size="7" fill="#0c4a6e" pointer-events="none">440</text>
  <path id="section-441" data-section="441" data-zone="cat-4" d="M 244.92 193.60 L 197.44 160.41 A 348.16 174.08 0 0 1 226.66 151.03 L 267.29 186.41 A 266.56 133.28 0 0 0 244.92 193.60 Z" fill="#dbeafe" stroke="#94a3b8" stroke-width="0.75"/>
  <text x="233.9" y="172.7" text-anchor="middle" font-size="7" fill="#0c4a6e" pointer-events="none">441</text>
  <path id="section-442" data-section="442" data-zone="cat-4" d="M 269.86 185.68 L 230.02 150.08 A 348.16 174.08 0 0 1 261.14 142.37 L 293.68 179.78 A 266.56 133.28 0 0 0 269.86 185.68 Z" fill="#dbeafe" stroke="#94a3b8" stroke-width="0.75"/>
  <text x="263.5" y="164.3" text-anchor="middle" font-size="7" fill="#0c4a6e" pointer-events="none">442</text>
  <path id="section-443" data-section="443" data-zone="cat-4" d="M 296.40 179.20 L 264.69 141.61 A 348.16 174.08 0 0 1 297.32 135.66 L 321.39 174.65 A 266.56 133.28 0 0 0 296.40 179.20 Z" fill="#dbeafe" stroke="#94a3b8" stroke-width="0.75"/>
  <text x="294.8" y="157.6" text-anchor="middle" font-size="7" fill="#0c4a6e" pointer-events="none">443</text>
  <path id="section-444" data-section="444" data-zone="cat-4" d="M 324.21 174.22 L 301.01 135.10 A 348.16 174.08 0 0 1 334.76 131.00 L 350.05 171.08 A 266.56 133.28 0 0 0 324.21 174.22 Z" fill="#dbeafe" stroke="#94a3b8" stroke-width="0.75"/>
  <text x="327.4" y="152.7" text-anchor="middle" font-size="7" fill="#0c4a6e" pointer-events="none">444</text>
  <path id="section-445" data-section="445" data-zone="cat-4" d="M 352.96 170.81 L 338.56 130.65 A 348.16 174.08 0 0 1 373.00 128.44 L 379.33 169.12 A 266.56 133.28 0 0 0 352.96 170.81 Z" fill="#dbeafe" stroke="#94a3b8" stroke-width="0.75"/>
  <text x="360.9" y="149.6" text-anchor="middle" font-size="7" fill="#0c4a6e" pointer-events="none">445</text>
  <path id="section-446" data-section="446" data-zone="cat-4" d="M 382.28 169.01 L 376.85 128.31 A 348.16 174.08 0 0 1 411.58 128.02 L 408.87 168.79 A 266.56 133.28 0 0 0 382.28 169.01 Z" fill="#dbeafe" stroke="#94a3b8" stroke-width="0.75"/>
  <text x="394.9" y="148.3" text-anchor="middle" font-size="7" fill="#0c4a6e" pointer-events="none">446</text>
  <path id="section-447" data-section="447" data-zone="cat-4" d="M 411.82 168.85 L 415.44 128.09 A 348.16 174.08 0 0 1 450.01 129.73 L 438.29 170.10 A 266.56 133.28 0 0 0 411.82 168.85 Z" fill="#dbeafe" stroke="#94a3b8" stroke-width="0.75"/>
  <text x="428.9" y="149.0" text-anchor="middle" font-size="7" fill="#0c4a6e" pointer-events="none">447</text>
  <path id="section-448" data-section="448" data-zone="cat-4" d="M 441.21 170.32 L 453.83 130.01 A 348.16 174.08 0 0 1 487.83 133.55 L 467.24 173.03 A 266.56 133.28 0 0 0 441.21 170.32 Z" fill="#dbeafe" stroke="#94a3b8" stroke-width="0.75"/>
  <text x="462.6" y="151.5" text-anchor="middle" font-size="7" fill="#0c4a6e" pointer-events="none">448</text>
  <path id="section-449" data-section="449" data-zone="cat-4" d="M 470.10 173.41 L 491.56 134.05 A 348.16 174.08 0 0 1 524.57 139.44 L 495.37 177.54 A 266.56 133.28 0 0 0 470.10 173.41 Z" fill="#dbeafe" stroke="#94a3b8" stroke-width="0.75"/>
  <text x="495.5" y="155.9" text-anchor="middle" font-size="7" fill="#0c4a6e" pointer-events="none">449</text>
  <path id="section-346" data-section="346" data-zone="cat-3" d="M 249.18 221.70 L 223.11 207.82 A 258.40 129.20 0 0 1 247.64 197.65 L 270.09 213.03 A 220.32 110.16 0 0 0 249.18 221.70 Z" fill="#dbeafe" stroke="#94a3b8" stroke-width="0.75"/>
  <text x="247.2" y="209.9" text-anchor="middle" font-size="7" fill="#0c4a6e" pointer-events="none">346</text>
  <path id="section-345" data-section="345" data-zone="cat-3" d="M 272.54 212.14 L 250.51 196.61 A 258.40 129.20 0 0 1 277.59 188.22 L 295.63 204.99 A 220.32 110.16 0 0 0 272.54 212.14 Z" fill="#dbeafe" stroke="#94a3b8" stroke-width="0.75"/>
  <text x="273.8" y="200.3" text-anchor="middle" font-size="7" fill="#0c4a6e" pointer-events="none">345</text>
  <path id="section-344" data-section="344" data-zone="cat-3" d="M 298.30 204.28 L 280.72 187.39 A 258.40 129.20 0 0 1 309.84 180.92 L 323.12 198.76 A 220.32 110.16 0 0 0 298.30 204.28 Z" fill="#dbeafe" stroke="#94a3b8" stroke-width="0.75"/>
  <text x="302.8" y="192.6" text-anchor="middle" font-size="7" fill="#0c4a6e" pointer-events="none">344</text>
  <path id="section-343" data-section="343" data-zone="cat-3" d="M 325.96 198.25 L 313.16 180.31 A 258.40 129.20 0 0 1 343.78 175.90 L 352.06 194.48 A 220.32 110.16 0 0 0 325.96 198.25 Z" fill="#dbeafe" stroke="#94a3b8" stroke-width="0.75"/>
  <text x="333.6" y="187.0" text-anchor="middle" font-size="7" fill="#0c4a6e" pointer-events="none">343</text>
  <path id="section-342" data-section="342" data-zone="cat-3" d="M 355.01 194.16 L 347.24 175.52 A 258.40 129.20 0 0 1 378.77 173.24 L 381.90 192.21 A 220.32 110.16 0 0 0 355.01 194.16 Z" fill="#dbeafe" stroke="#94a3b8" stroke-width="0.75"/>
  <text x="365.7" y="183.6" text-anchor="middle" font-size="7" fill="#0c4a6e" pointer-events="none">342</text>
  <path id="section-341" data-section="341" data-zone="cat-3" d="M 384.91 192.10 L 382.30 173.10 A 258.40 129.20 0 0 1 414.16 172.99 L 412.08 192.01 A 220.32 110.16 0 0 0 384.91 192.10 Z" fill="#dbeafe" stroke="#94a3b8" stroke-width="0.75"/>
  <text x="398.4" y="182.3" text-anchor="middle" font-size="7" fill="#0c4a6e" pointer-events="none">341</text>
  <path id="section-340" data-section="340" data-zone="cat-3" d="M 415.09 192.10 L 417.70 173.10 A 258.40 129.20 0 0 1 449.29 175.17 L 442.03 193.86 A 220.32 110.16 0 0 0 415.09 192.10 Z" fill="#dbeafe" stroke="#94a3b8" stroke-width="0.75"/>
  <text x="431.1" y="183.3" text-anchor="middle" font-size="7" fill="#0c4a6e" pointer-events="none">340</text>
  <path id="section-339" data-section="339" data-zone="cat-3" d="M 444.99 194.16 L 452.76 175.52 A 258.40 129.20 0 0 1 483.49 179.73 L 471.19 197.75 A 220.32 110.16 0 0 0 444.99 194.16 Z" fill="#dbeafe" stroke="#94a3b8" stroke-width="0.75"/>
  <text x="463.2" y="186.6" text-anchor="middle" font-size="7" fill="#0c4a6e" pointer-events="none">339</text>
  <path id="section-338" data-section="338" data-zone="cat-3" d="M 474.04 198.25 L 486.84 180.31 A 258.40 129.20 0 0 1 516.13 186.58 L 499.01 203.59 A 220.32 110.16 0 0 0 474.04 198.25 Z" fill="#dbeafe" stroke="#94a3b8" stroke-width="0.75"/>
  <text x="494.2" y="192.0" text-anchor="middle" font-size="7" fill="#0c4a6e" pointer-events="none">338</text>
  <path id="section-337" data-section="337" data-zone="cat-3" d="M 501.70 204.28 L 519.28 187.39 A 258.40 129.20 0 0 1 546.58 195.60 L 524.98 211.28 A 220.32 110.16 0 0 0 501.70 204.28 Z" fill="#dbeafe" stroke="#94a3b8" stroke-width="0.75"/>
  <text x="523.4" y="199.4" text-anchor="middle" font-size="7" fill="#0c4a6e" pointer-events="none">337</text>
  <path id="section-336" data-section="336" data-zone="cat-3" d="M 527.46 212.14 L 549.49 196.61 A 258.40 129.20 0 0 1 574.29 206.61 L 548.60 220.67 A 220.32 110.16 0 0 0 527.46 212.14 Z" fill="#dbeafe" stroke="#94a3b8" stroke-width="0.75"/>
  <text x="550.2" y="208.8" text-anchor="middle" font-size="7" fill="#0c4a6e" pointer-events="none">336</text>
  <path id="section-248" data-section="248" data-zone="cat-2" d="M 457.91 240.47 L 490.33 206.02 A 212.16 106.08 0 0 1 515.64 213.06 L 474.13 244.99 A 136.00 68.00 0 0 0 457.91 240.47 Z" fill="#dbeafe" stroke="#94a3b8" stroke-width="0.75"/>
  <text x="484.7" y="226.0" text-anchor="middle" font-size="7" fill="#0c4a6e" pointer-events="none">248</text>
  <path id="section-249" data-section="249" data-zone="cat-2" d="M 475.85 245.56 L 518.33 213.95 A 212.16 106.08 0 0 1 541.22 222.83 L 490.52 251.25 A 136.00 68.00 0 0 0 475.85 245.56 Z" fill="#dbeafe" stroke="#94a3b8" stroke-width="0.75"/>
  <text x="506.7" y="233.2" text-anchor="middle" font-size="7" fill="#0c4a6e" pointer-events="none">249</text>
  <path id="section-251" data-section="251" data-zone="cat-2" d="M 492.06 251.95 L 543.61 223.91 A 212.16 106.08 0 0 1 563.54 234.42 L 504.84 258.68 A 136.00 68.00 0 0 0 492.06 251.95 Z" fill="#dbeafe" stroke="#94a3b8" stroke-width="0.75"/>
  <text x="526.3" y="242.1" text-anchor="middle" font-size="7" fill="#0c4a6e" pointer-events="none">251</text>
  <path id="section-252" data-section="252" data-zone="cat-2" d="M 506.14 259.48 L 565.58 235.67 A 212.16 106.08 0 0 1 582.10 247.57 L 516.73 267.11 A 136.00 68.00 0 0 0 506.14 259.48 Z" fill="#dbeafe" stroke="#94a3b8" stroke-width="0.75"/>
  <text x="543.0" y="252.3" text-anchor="middle" font-size="7" fill="#0c4a6e" pointer-events="none">252</text>
  <path id="section-253" data-section="253" data-zone="cat-2" d="M 517.78 268.00 L 583.74 248.96 A 212.16 106.08 0 0 1 596.47 261.97 L 525.95 276.34 A 136.00 68.00 0 0 0 517.78 268.00 Z" fill="#dbeafe" stroke="#94a3b8" stroke-width="0.75"/>
  <text x="556.3" y="263.7" text-anchor="middle" font-size="7" fill="#0c4a6e" pointer-events="none">253</text>
  <path id="section-254" data-section="254" data-zone="cat-2" d="M 526.71 277.30 L 597.67 263.47 A 212.16 106.08 0 0 1 606.32 277.29 L 532.26 286.16 A 136.00 68.00 0 0 0 526.71 277.30 Z" fill="#dbeafe" stroke="#94a3b8" stroke-width="0.75"/>
  <text x="566.1" y="276.0" text-anchor="middle" font-size="7" fill="#0c4a6e" pointer-events="none">254</text>
  <path id="section-201" data-section="201" data-zone="cat-2" d="M 532.72 287.17 L 607.05 278.86 A 212.16 106.08 0 0 1 611.43 293.18 L 535.53 296.35 A 136.00 68.00 0 0 0 532.72 287.17 Z" fill="#dbeafe" stroke="#94a3b8" stroke-width="0.75"/>
  <text x="572.1" y="288.9" text-anchor="middle" font-size="7" fill="#0c4a6e" pointer-events="none">201</text>
  <path id="section-202" data-section="202" data-zone="cat-2" d="M 535.69 297.37 L 611.67 294.78 A 212.16 106.08 0 0 1 611.66 309.27 L 535.68 306.66 A 136.00 68.00 0 0 0 535.69 297.37 Z" fill="#dbeafe" stroke="#94a3b8" stroke-width="0.75"/>
  <text x="574.1" y="302.0" text-anchor="middle" font-size="7" fill="#0c4a6e" pointer-events="none">202</text>
  <path id="section-203" data-section="203" data-zone="cat-2" d="M 535.52 307.69 L 611.42 310.88 A 212.16 106.08 0 0 1 607.03 325.19 L 532.71 316.87 A 136.00 68.00 0 0 0 535.52 307.69 Z" fill="#dbeafe" stroke="#94a3b8" stroke-width="0.75"/>
  <text x="572.1" y="315.2" text-anchor="middle" font-size="7" fill="#0c4a6e" pointer-events="none">203</text>
  <path id="section-204" data-section="204" data-zone="cat-2" d="M 532.24 317.87 L 606.30 326.76 A 212.16 106.08 0 0 1 597.63 340.59 L 526.68 326.73 A 136.00 68.00 0 0 0 532.24 317.87 Z" fill="#dbeafe" stroke="#94a3b8" stroke-width="0.75"/>
  <text x="566.1" y="328.1" text-anchor="middle" font-size="7" fill="#0c4a6e" pointer-events="none">204</text>
  <path id="section-206" data-section="206" data-zone="cat-2" d="M 525.92 327.69 L 596.43 342.08 A 212.16 106.08 0 0 1 583.68 355.09 L 517.74 336.03 A 136.00 68.00 0 0 0 525.92 327.69 Z" fill="#dbeafe" stroke="#94a3b8" stroke-width="0.75"/>
  <text x="556.3" y="340.3" text-anchor="middle" font-size="7" fill="#0c4a6e" pointer-events="none">206</text>
  <path id="section-207" data-section="207" data-zone="cat-2" d="M 516.70 336.92 L 582.05 356.48 A 212.16 106.08 0 0 1 565.51 368.37 L 506.09 344.54 A 136.00 68.00 0 0 0 516.70 336.92 Z" fill="#dbeafe" stroke="#94a3b8" stroke-width="0.75"/>
  <text x="542.9" y="351.7" text-anchor="middle" font-size="7" fill="#0c4a6e" pointer-events="none">207</text>
  <path id="section-209" data-section="209" data-zone="cat-2" d="M 504.79 345.34 L 563.47 369.62 A 212.16 106.08 0 0 1 549.50 377.27 L 495.84 350.25 A 136.00 68.00 0 0 0 504.79 345.34 Z" fill="#dbeafe" stroke="#94a3b8" stroke-width="0.75"/>
  <text x="528.6" y="360.7" text-anchor="middle" font-size="7" fill="#0c4a6e" pointer-events="none">209</text>
  <path id="section-210" data-section="210" data-zone="cat-1" d="M 494.78 350.76 L 547.86 378.07 A 212.16 106.08 0 0 1 532.32 384.92 L 484.82 355.15 A 136.00 68.00 0 0 0 494.78 350.76 Z" fill="#dbeafe" stroke="#94a3b8" stroke-width="0.75"/>
  <text x="515.1" y="367.3" text-anchor="middle" font-size="7" fill="#0c4a6e" pointer-events="none">210</text>
  <path id="section-211" data-section="211" data-zone="cat-1" d="M 483.66 355.61 L 530.51 385.63 A 212.16 106.08 0 0 1 513.58 391.60 L 472.81 359.44 A 136.00 68.00 0 0 0 483.66 355.61 Z" fill="#dbeafe" stroke="#94a3b8" stroke-width="0.75"/>
  <text x="500.3" y="373.2" text-anchor="middle" font-size="7" fill="#0c4a6e" pointer-events="none">211</text>
  <path id="section-212" data-section="212" data-zone="cat-1" d="M 471.56 359.83 L 511.63 392.21 A 212.16 106.08 0 0 1 493.50 397.22 L 459.94 363.04 A 136.00 68.00 0 0 0 471.56 359.83 Z" fill="#dbeafe" stroke="#94a3b8" stroke-width="0.75"/>
  <text x="484.3" y="378.2" text-anchor="middle" font-size="7" fill="#0c4a6e" pointer-events="none">212</text>
  <path id="section-213" data-section="213" data-zone="cat-1" d="M 458.61 363.36 L 491.43 397.72 A 212.16 106.08 0 0 1 472.32 401.73 L 446.36 365.93 A 136.00 68.00 0 0 0 458.61 363.36 Z" fill="#dbeafe" stroke="#94a3b8" stroke-width="0.75"/>
  <text x="467.3" y="382.3" text-anchor="middle" font-size="7" fill="#0c4a6e" pointer-events="none">213</text>
  <path id="section-214" data-section="214" data-zone="cat-1" d="M 444.97 366.17 L 470.15 402.11 A 212.16 106.08 0 0 1 450.29 405.06 L 432.24 368.06 A 136.00 68.00 0 0 0 444.97 366.17 Z" fill="#dbeafe" stroke="#94a3b8" stroke-width="0.75"/>
  <text x="449.5" y="385.5" text-anchor="middle" font-size="7" fill="#0c4a6e" pointer-events="none">214</text>
  <path id="section-215" data-section="215" data-zone="cat-1" d="M 430.80 368.23 L 448.05 405.32 A 212.16 106.08 0 0 1 427.67 407.17 L 417.74 369.42 A 136.00 68.00 0 0 0 430.80 368.23 Z" fill="#dbeafe" stroke="#94a3b8" stroke-width="0.75"/>
  <text x="431.1" y="387.6" text-anchor="middle" font-size="7" fill="#0c4a6e" pointer-events="none">215</text>
  <path id="section-216" data-section="216" data-zone="cat-1" d="M 416.27 369.51 L 425.39 407.32 A 212.16 106.08 0 0 1 404.73 408.05 L 403.03 369.98 A 136.00 68.00 0 0 0 416.27 369.51 Z" fill="#dbeafe" stroke="#94a3b8" stroke-width="0.75"/>
  <text x="412.4" y="388.8" text-anchor="middle" font-size="7" fill="#0c4a6e" pointer-events="none">216</text>
  <path id="section-217" data-section="217" data-zone="cat-1" d="M 401.55 370.00 L 402.42 408.07 A 212.16 106.08 0 0 1 381.72 407.69 L 388.28 369.75 A 136.00 68.00 0 0 0 401.55 370.00 Z" fill="#dbeafe" stroke="#94a3b8" stroke-width="0.75"/>
  <text x="393.5" y="389.0" text-anchor="middle" font-size="7" fill="#0c4a6e" pointer-events="none">217</text>
  <path id="section-218" data-section="218" data-zone="cat-1" d="M 386.81 369.68 L 379.43 407.58 A 212.16 106.08 0 0 1 358.94 406.07 L 373.68 368.71 A 136.00 68.00 0 0 0 386.81 369.68 Z" fill="#dbeafe" stroke="#94a3b8" stroke-width="0.75"/>
  <text x="374.7" y="388.1" text-anchor="middle" font-size="7" fill="#0c4a6e" pointer-events="none">218</text>
  <path id="section-219" data-section="219" data-zone="cat-2" d="M 372.23 368.57 L 356.68 405.85 A 212.16 106.08 0 0 1 336.63 403.24 L 359.38 366.90 A 136.00 68.00 0 0 0 372.23 368.57 Z" fill="#dbeafe" stroke="#94a3b8" stroke-width="0.75"/>
  <text x="356.2" y="386.2" text-anchor="middle" font-size="7" fill="#0c4a6e" pointer-events="none">219</text>
  <path id="section-221" data-section="221" data-zone="cat-2" d="M 357.97 366.67 L 334.44 402.89 A 212.16 106.08 0 0 1 317.58 399.75 L 347.17 364.66 A 136.00 68.00 0 0 0 357.97 366.67 Z" fill="#dbeafe" stroke="#94a3b8" stroke-width="0.75"/>
  <text x="339.2" y="383.6" text-anchor="middle" font-size="7" fill="#0c4a6e" pointer-events="none">221</text>
  <path id="section-222" data-section="222" data-zone="cat-2" d="M 345.99 364.41 L 315.74 399.36 A 212.16 106.08 0 0 1 299.55 395.44 L 335.61 361.89 A 136.00 68.00 0 0 0 345.99 364.41 Z" fill="#dbeafe" stroke="#94a3b8" stroke-width="0.75"/>
  <text x="324.2" y="380.3" text-anchor="middle" font-size="7" fill="#0c4a6e" pointer-events="none">222</text>
  <path id="section-224" data-section="224" data-zone="cat-2" d="M 334.48 361.59 L 297.79 394.96 A 212.16 106.08 0 0 1 282.41 390.29 L 324.62 358.60 A 136.00 68.00 0 0 0 334.48 361.59 Z" fill="#dbeafe" stroke="#94a3b8" stroke-width="0.75"/>
  <text x="309.7" y="376.4" text-anchor="middle" font-size="7" fill="#0c4a6e" pointer-events="none">224</text>
  <path id="section-225" data-section="225" data-zone="cat-2" d="M 323.56 358.24 L 280.75 389.74 A 212.16 106.08 0 0 1 266.31 384.37 L 314.30 354.80 A 136.00 68.00 0 0 0 323.56 358.24 Z" fill="#dbeafe" stroke="#94a3b8" stroke-width="0.75"/>
  <text x="296.1" y="371.9" text-anchor="middle" font-size="7" fill="#0c4a6e" pointer-events="none">225</text>
  <path id="section-226" data-section="226" data-zone="cat-2" d="M 313.31 354.39 L 264.76 383.74 A 212.16 106.08 0 0 1 251.40 377.71 L 304.74 350.53 A 136.00 68.00 0 0 0 313.31 354.39 Z" fill="#dbeafe" stroke="#94a3b8" stroke-width="0.75"/>
  <text x="283.5" y="366.7" text-anchor="middle" font-size="7" fill="#0c4a6e" pointer-events="none">226</text>
  <path id="section-227" data-section="227" data-zone="cat-2" d="M 303.83 350.08 L 249.98 377.01 A 212.16 106.08 0 0 1 237.81 370.39 L 296.03 345.84 A 136.00 68.00 0 0 0 303.83 350.08 Z" fill="#dbeafe" stroke="#94a3b8" stroke-width="0.75"/>
  <text x="271.8" y="360.9" text-anchor="middle" font-size="7" fill="#0c4a6e" pointer-events="none">227</text>
  <path id="section-228" data-section="228" data-zone="cat-2" d="M 295.21 345.34 L 236.53 369.62 A 212.16 106.08 0 0 1 225.66 362.45 L 288.24 340.75 A 136.00 68.00 0 0 0 295.21 345.34 Z" fill="#dbeafe" stroke="#94a3b8" stroke-width="0.75"/>
  <text x="261.3" y="354.6" text-anchor="middle" font-size="7" fill="#0c4a6e" pointer-events="none">228</text>
  <path id="section-229" data-section="229" data-zone="cat-2" d="M 287.52 340.22 L 224.53 361.63 A 212.16 106.08 0 0 1 215.05 353.98 L 281.45 335.32 A 136.00 68.00 0 0 0 287.52 340.22 Z" fill="#dbeafe" stroke="#94a3b8" stroke-width="0.75"/>
  <text x="252.0" y="347.8" text-anchor="middle" font-size="7" fill="#0c4a6e" pointer-events="none">229</text>
  <path id="section-230" data-section="230" data-zone="cat-2" d="M 280.82 334.76 L 214.08 353.10 A 212.16 106.08 0 0 1 206.09 345.05 L 275.70 329.59 A 136.00 68.00 0 0 0 280.82 334.76 Z" fill="#dbeafe" stroke="#94a3b8" stroke-width="0.75"/>
  <text x="244.0" y="340.7" text-anchor="middle" font-size="7" fill="#0c4a6e" pointer-events="none">230</text>
  <path id="section-231" data-section="231" data-zone="cat-2" d="M 275.19 329.01 L 205.29 344.13 A 212.16 106.08 0 0 1 198.85 335.73 L 271.06 323.62 A 136.00 68.00 0 0 0 275.19 329.01 Z" fill="#dbeafe" stroke="#94a3b8" stroke-width="0.75"/>
  <text x="237.4" y="333.1" text-anchor="middle" font-size="7" fill="#0c4a6e" pointer-events="none">231</text>
  <path id="section-233" data-section="233" data-zone="cat-2" d="M 270.66 323.01 L 198.22 334.78 A 212.16 106.08 0 0 1 193.39 326.12 L 267.56 317.46 A 136.00 68.00 0 0 0 270.66 323.01 Z" fill="#dbeafe" stroke="#94a3b8" stroke-width="0.75"/>
  <text x="232.3" y="325.4" text-anchor="middle" font-size="7" fill="#0c4a6e" pointer-events="none">233</text>
  <path id="section-234" data-section="234" data-zone="cat-2" d="M 267.28 316.83 L 192.95 325.14 A 212.16 106.08 0 0 1 189.77 316.29 L 265.24 311.16 A 136.00 68.00 0 0 0 267.28 316.83 Z" fill="#dbeafe" stroke="#94a3b8" stroke-width="0.75"/>
  <text x="228.7" y="317.4" text-anchor="middle" font-size="7" fill="#0c4a6e" pointer-events="none">234</text>
  <path id="section-236" data-section="236" data-zone="cat-1" d="M 265.07 293.48 L 189.51 288.70 A 212.16 106.08 0 0 1 196.10 272.70 L 269.29 283.22 A 136.00 68.00 0 0 0 265.07 293.48 Z" fill="#dbeafe" stroke="#94a3b8" stroke-width="0.75"/>
  <text x="229.5" y="284.5" text-anchor="middle" font-size="7" fill="#0c4a6e" pointer-events="none">236</text>
  <path id="section-237" data-section="237" data-zone="cat-1" d="M 269.96 282.10 L 197.13 270.95 A 212.16 106.08 0 0 1 209.08 255.74 L 277.61 272.35 A 136.00 68.00 0 0 0 269.96 282.10 Z" fill="#dbeafe" stroke="#94a3b8" stroke-width="0.75"/>
  <text x="238.0" y="270.2" text-anchor="middle" font-size="7" fill="#0c4a6e" pointer-events="none">237</text>
  <path id="section-238" data-section="238" data-zone="cat-1" d="M 278.65 271.30 L 210.69 254.11 A 212.16 106.08 0 0 1 227.65 240.14 L 289.52 262.35 A 136.00 68.00 0 0 0 278.65 271.30 Z" fill="#dbeafe" stroke="#94a3b8" stroke-width="0.75"/>
  <text x="251.2" y="256.8" text-anchor="middle" font-size="7" fill="#0c4a6e" pointer-events="none">238</text>
  <path id="section-239" data-section="239" data-zone="cat-1" d="M 290.89 261.40 L 229.79 238.67 A 212.16 106.08 0 0 1 251.27 226.35 L 304.66 253.51 A 136.00 68.00 0 0 0 290.89 261.40 Z" fill="#dbeafe" stroke="#94a3b8" stroke-width="0.75"/>
  <text x="268.8" y="244.8" text-anchor="middle" font-size="7" fill="#0c4a6e" pointer-events="none">239</text>
  <path id="section-240" data-section="240" data-zone="cat-1" d="M 306.34 252.70 L 253.89 225.09 A 212.16 106.08 0 0 1 279.25 214.78 L 322.60 246.09 A 136.00 68.00 0 0 0 306.34 252.70 Z" fill="#dbeafe" stroke="#94a3b8" stroke-width="0.75"/>
  <text x="290.2" y="234.5" text-anchor="middle" font-size="7" fill="#0c4a6e" pointer-events="none">240</text>
  <path id="section-241" data-section="241" data-zone="cat-1" d="M 324.52 245.43 L 282.26 213.76 A 212.16 106.08 0 0 1 310.76 205.76 L 342.80 240.31 A 136.00 68.00 0 0 0 324.52 245.43 Z" fill="#dbeafe" stroke="#94a3b8" stroke-width="0.75"/>
  <text x="314.8" y="226.1" text-anchor="middle" font-size="7" fill="#0c4a6e" pointer-events="none">241</text>
  <path id="section-242" data-section="242" data-zone="cat-1" d="M 344.92 239.83 L 314.08 205.01 A 212.16 106.08 0 0 1 344.89 199.56 L 364.68 236.33 A 136.00 68.00 0 0 0 344.92 239.83 Z" fill="#dbeafe" stroke="#94a3b8" stroke-width="0.75"/>
  <text x="342.0" y="219.9" text-anchor="middle" font-size="7" fill="#0c4a6e" pointer-events="none">242</text>
  <path id="section-243" data-section="243" data-zone="cat-1" d="M 366.93 236.04 L 348.41 199.10 A 212.16 106.08 0 0 1 380.64 196.36 L 387.59 234.28 A 136.00 68.00 0 0 0 366.93 236.04 Z" fill="#dbeafe" stroke="#94a3b8" stroke-width="0.75"/>
  <text x="370.8" y="216.2" text-anchor="middle" font-size="7" fill="#0c4a6e" pointer-events="none">243</text>
  <path id="section-244" data-section="244" data-zone="cat-1" d="M 389.91 234.19 L 384.26 196.21 A 212.16 106.08 0 0 1 416.95 196.26 L 410.86 234.22 A 136.00 68.00 0 0 0 389.91 234.19 Z" fill="#dbeafe" stroke="#94a3b8" stroke-width="0.75"/>
  <text x="400.5" y="215.0" text-anchor="middle" font-size="7" fill="#0c4a6e" pointer-events="none">244</text>
  <path id="section-245" data-section="245" data-zone="cat-2" d="M 413.19 234.32 L 420.57 196.42 A 212.16 106.08 0 0 1 452.76 199.25 L 433.82 236.14 A 136.00 68.00 0 0 0 413.19 234.32 Z" fill="#dbeafe" stroke="#94a3b8" stroke-width="0.75"/>
  <text x="430.2" y="216.3" text-anchor="middle" font-size="7" fill="#0c4a6e" pointer-events="none">245</text>
  <path id="section-246" data-section="246" data-zone="cat-2" d="M 436.07 236.44 L 456.28 199.72 A 212.16 106.08 0 0 1 487.03 205.26 L 455.79 239.98 A 136.00 68.00 0 0 0 436.07 236.44 Z" fill="#dbeafe" stroke="#94a3b8" stroke-width="0.75"/>
  <text x="459.0" y="220.1" text-anchor="middle" font-size="7" fill="#0c4a6e" pointer-events="none">246</text>
</svg>
