<?xml version="1.0" encoding="UTF-8"?>
<!-- Levi's Stadium — traced from levis-reference.png (viagogo). Regenerate: node scripts/generate-levis-svg.mjs -->
<svg xmlns="http://www.w3.org/2000/svg" viewBox="0 0 800 640" role="img" aria-label="Levi's Stadium seating chart">
  <rect width="800" height="640" fill="#f1f5f9" rx="12"/>
  <rect x="255" y="205" width="290" height="246" fill="#16a34a" rx="6"/>
  <circle cx="400" cy="328" r="36" fill="none" stroke="white" stroke-width="2" opacity="0.85"/>
  <line x1="400" y1="205" x2="400" y2="451" stroke="white" stroke-width="2" opacity="0.85"/>
  <path id="section-401" data-section="401" d="M 119.81 297.77 L 34.91 288.60 A 374.10 180.60 0 0 1 91.86 225.59 L 163.52 249.41 A 287.10 138.60 0 0 0 119.81 297.77 Z" fill="#dbeafe" stroke="#94a3b8" stroke-width="0.75"/>
  <text x="97.0" y="264.2" text-anchor="middle" font-size="7" fill="#0c4a6e" pointer-events="none">401</text>
  <path id="section-402" data-section="402" d="M 170.66 244.62 L 101.16 219.36 A 374.10 180.60 0 0 1 206.91 173.32 L 251.81 209.29 A 287.10 138.60 0 0 0 170.66 244.62 Z" fill="#dbeafe" stroke="#94a3b8" stroke-width="0.75"/>
  <text x="178.6" y="209.5" text-anchor="middle" font-size="7" fill="#0c4a6e" pointer-events="none">402</text>
  <path id="section-403" data-section="403" d="M 262.41 206.35 L 220.71 169.49 A 374.10 180.60 0 0 1 356.40 148.63 L 366.54 190.34 A 287.10 138.60 0 0 0 262.41 206.35 Z" fill="#dbeafe" stroke="#94a3b8" stroke-width="0.75"/>
  <text x="299.7" y="175.9" text-anchor="middle" font-size="7" fill="#0c4a6e" pointer-events="none">403</text>
  <path id="section-404" data-section="404" d="M 378.70 189.78 L 372.25 147.90 A 374.10 180.60 0 0 1 513.67 155.94 L 487.24 195.95 A 287.10 138.60 0 0 0 378.70 189.78 Z" fill="#dbeafe" stroke="#94a3b8" stroke-width="0.75"/>
  <text x="438.7" y="169.5" text-anchor="middle" font-size="7" fill="#0c4a6e" pointer-events="none">404</text>
  <path id="section-405" data-section="405" d="M 498.79 197.86 L 528.73 158.43 A 374.10 180.60 0 0 1 650.67 193.94 L 592.37 225.11 A 287.10 138.60 0 0 0 498.79 197.86 Z" fill="#dbeafe" stroke="#94a3b8" stroke-width="0.75"/>
  <text x="570.8" y="191.3" text-anchor="middle" font-size="7" fill="#0c4a6e" pointer-events="none">405</text>
  <path id="section-406" data-section="406" d="M 601.26 229.16 L 662.25 199.21 A 374.10 180.60 0 0 1 742.95 255.85 L 663.19 272.63 A 287.10 138.60 0 0 0 601.26 229.16 Z" fill="#dbeafe" stroke="#94a3b8" stroke-width="0.75"/>
  <text x="672.4" y="237.6" text-anchor="middle" font-size="7" fill="#0c4a6e" pointer-events="none">406</text>
  <path id="section-407" data-section="407" d="M 667.83 278.08 L 749.00 262.96 A 374.10 180.60 0 0 1 774.06 330.63 L 687.07 330.02 A 287.10 138.60 0 0 0 667.83 278.08 Z" fill="#dbeafe" stroke="#94a3b8" stroke-width="0.75"/>
  <text x="725.4" y="299.9" text-anchor="middle" font-size="7" fill="#0c4a6e" pointer-events="none">407</text>
  <path id="section-408" data-section="408" d="M 686.63 335.91 L 773.49 338.31 A 374.10 180.60 0 0 1 738.45 404.94 L 659.74 387.05 A 287.10 138.60 0 0 0 686.63 335.91 Z" fill="#dbeafe" stroke="#94a3b8" stroke-width="0.75"/>
  <text x="720.4" y="367.3" text-anchor="middle" font-size="7" fill="#0c4a6e" pointer-events="none">408</text>
  <path id="section-409" data-section="409" d="M 654.30 392.33 L 731.36 411.82 A 374.10 180.60 0 0 1 642.47 465.53 L 586.08 433.55 A 287.10 138.60 0 0 0 654.30 392.33 Z" fill="#dbeafe" stroke="#94a3b8" stroke-width="0.75"/>
  <text x="658.3" y="427.6" text-anchor="middle" font-size="7" fill="#0c4a6e" pointer-events="none">409</text>
  <path id="section-410" data-section="410" d="M 576.61 437.27 L 630.13 470.39 A 374.10 180.60 0 0 1 503.24 501.59 L 479.23 461.22 A 287.10 138.60 0 0 0 576.61 437.27 Z" fill="#dbeafe" stroke="#94a3b8" stroke-width="0.75"/>
  <text x="550.0" y="470.2" text-anchor="middle" font-size="7" fill="#0c4a6e" pointer-events="none">410</text>
  <path id="section-411" data-section="411" d="M 467.42 462.72 L 487.85 503.55 A 374.10 180.60 0 0 1 345.60 506.68 L 358.25 465.13 A 287.10 138.60 0 0 0 467.42 462.72 Z" fill="#dbeafe" stroke="#94a3b8" stroke-width="0.75"/>
  <text x="415.1" y="487.4" text-anchor="middle" font-size="7" fill="#0c4a6e" pointer-events="none">411</text>
  <path id="section-412" data-section="412" d="M 346.20 464.15 L 329.90 505.40 A 374.10 180.60 0 0 1 197.66 479.90 L 244.71 444.58 A 287.10 138.60 0 0 0 346.20 464.15 Z" fill="#dbeafe" stroke="#94a3b8" stroke-width="0.75"/>
  <text x="277.4" y="476.2" text-anchor="middle" font-size="7" fill="#0c4a6e" pointer-events="none">412</text>
  <path id="section-413" data-section="413" d="M 234.58 441.28 L 184.45 475.61 A 374.10 180.60 0 0 1 85.81 426.03 L 158.88 403.23 A 287.10 138.60 0 0 0 234.58 441.28 Z" fill="#dbeafe" stroke="#94a3b8" stroke-width="0.75"/>
  <text x="161.6" y="438.6" text-anchor="middle" font-size="7" fill="#0c4a6e" pointer-events="none">413</text>
  <path id="section-414" data-section="414" d="M 152.46 398.21 L 77.45 419.49 A 374.10 180.60 0 0 1 30.00 354.67 L 116.05 348.47 A 287.10 138.60 0 0 0 152.46 398.21 Z" fill="#dbeafe" stroke="#94a3b8" stroke-width="0.75"/>
  <text x="88.3" y="381.2" text-anchor="middle" font-size="7" fill="#0c4a6e" pointer-events="none">414</text>
  <path id="section-415" data-section="415" d="M 114.50 342.62 L 27.99 347.05 A 374.10 180.60 0 0 1 40.19 278.56 L 123.87 290.05 A 287.10 138.60 0 0 0 114.50 342.62 Z" fill="#dbeafe" stroke="#94a3b8" stroke-width="0.75"/>
  <text x="70.6" y="314.3" text-anchor="middle" font-size="7" fill="#0c4a6e" pointer-events="none">415</text>
  <path id="section-416" data-section="416" d="M 127.46 284.42 L 44.88 271.21 A 374.10 180.60 0 0 1 114.56 211.26 L 180.94 238.41 A 287.10 138.60 0 0 0 127.46 284.42 Z" fill="#dbeafe" stroke="#94a3b8" stroke-width="0.75"/>
  <text x="111.7" y="249.9" text-anchor="middle" font-size="7" fill="#0c4a6e" pointer-events="none">416</text>
  <path id="section-417" data-section="417" d="M 189.04 233.99 L 125.11 205.50 A 374.10 180.60 0 0 1 239.85 164.79 L 277.09 202.74 A 287.10 138.60 0 0 0 189.04 233.99 Z" fill="#dbeafe" stroke="#94a3b8" stroke-width="0.75"/>
  <text x="204.2" y="199.4" text-anchor="middle" font-size="7" fill="#0c4a6e" pointer-events="none">417</text>
  <path id="section-418" data-section="418" d="M 288.24 200.33 L 254.37 161.65 A 374.10 180.60 0 0 1 393.70 147.43 L 395.16 189.42 A 287.10 138.60 0 0 0 288.24 200.33 Z" fill="#dbeafe" stroke="#94a3b8" stroke-width="0.75"/>
  <text x="331.6" y="171.9" text-anchor="middle" font-size="7" fill="#0c4a6e" pointer-events="none">418</text>
  <path id="section-419" data-section="419" d="M 407.38 189.45 L 409.61 147.46 A 374.10 180.60 0 0 1 548.67 162.27 L 514.10 200.81 A 287.10 138.60 0 0 0 407.38 189.45 Z" fill="#dbeafe" stroke="#94a3b8" stroke-width="0.75"/>
  <text x="471.2" y="172.1" text-anchor="middle" font-size="7" fill="#0c4a6e" pointer-events="none">419</text>
  <path id="section-420" data-section="420" d="M 525.20 203.27 L 563.14 165.48 A 374.10 180.60 0 0 1 677.13 206.68 L 612.68 234.90 A 287.10 138.60 0 0 0 525.20 203.27 Z" fill="#dbeafe" stroke="#94a3b8" stroke-width="0.75"/>
  <text x="598.2" y="200.2" text-anchor="middle" font-size="7" fill="#0c4a6e" pointer-events="none">420</text>
  <path id="section-421" data-section="421" d="M 620.69 239.35 L 687.57 212.48 A 374.10 180.60 0 0 1 756.15 272.73 L 673.33 285.58 A 287.10 138.60 0 0 0 620.69 239.35 Z" fill="#dbeafe" stroke="#94a3b8" stroke-width="0.75"/>
  <text x="689.7" y="251.1" text-anchor="middle" font-size="7" fill="#0c4a6e" pointer-events="none">421</text>
  <path id="section-422" data-section="422" d="M 676.82 291.24 L 760.70 280.10 A 374.10 180.60 0 0 1 771.65 348.64 L 685.22 343.84 A 287.10 138.60 0 0 0 676.82 291.24 Z" fill="#dbeafe" stroke="#94a3b8" stroke-width="0.75"/>
  <text x="729.6" y="315.7" text-anchor="middle" font-size="7" fill="#0c4a6e" pointer-events="none">422</text>
  <path id="section-301" data-section="301" d="M 263.51 235.71 L 238.24 218.61 A 278.40 134.40 0 0 1 247.40 215.59 L 271.24 233.15 A 234.90 113.40 0 0 0 263.51 235.71 Z" fill="#dbeafe" stroke="#94a3b8" stroke-width="0.75"/>
  <text x="255.1" y="225.7" text-anchor="middle" font-size="7" fill="#0c4a6e" pointer-events="none">301</text>
  <path id="section-302" data-section="302" d="M 272.11 232.88 L 248.43 215.26 A 278.40 134.40 0 0 1 257.86 212.44 L 280.07 230.50 A 234.90 113.40 0 0 0 272.11 232.88 Z" fill="#dbeafe" stroke="#94a3b8" stroke-width="0.75"/>
  <text x="264.6" y="222.7" text-anchor="middle" font-size="7" fill="#0c4a6e" pointer-events="none">302</text>
  <path id="section-303" data-section="303" d="M 280.96 230.24 L 258.92 212.14 A 278.40 134.40 0 0 1 268.59 209.51 L 289.12 228.03 A 234.90 113.40 0 0 0 280.96 230.24 Z" fill="#dbeafe" stroke="#94a3b8" stroke-width="0.75"/>
  <text x="274.4" y="220.0" text-anchor="middle" font-size="7" fill="#0c4a6e" pointer-events="none">303</text>
  <path id="section-304" data-section="304" d="M 290.04 227.79 L 269.68 209.23 A 278.40 134.40 0 0 1 279.59 206.82 L 298.40 225.76 A 234.90 113.40 0 0 0 290.04 227.79 Z" fill="#dbeafe" stroke="#94a3b8" stroke-width="0.75"/>
  <text x="284.4" y="217.4" text-anchor="middle" font-size="7" fill="#0c4a6e" pointer-events="none">304</text>
  <path id="section-305" data-section="305" d="M 299.34 225.54 L 280.70 206.57 A 278.40 134.40 0 0 1 290.82 204.37 L 307.88 223.68 A 234.90 113.40 0 0 0 299.34 225.54 Z" fill="#dbeafe" stroke="#94a3b8" stroke-width="0.75"/>
  <text x="294.7" y="215.0" text-anchor="middle" font-size="7" fill="#0c4a6e" pointer-events="none">305</text>
  <path id="section-306" data-section="306" d="M 308.83 223.49 L 291.95 204.13 A 278.40 134.40 0 0 1 302.26 202.15 L 317.53 221.82 A 234.90 113.40 0 0 0 308.83 223.49 Z" fill="#dbeafe" stroke="#94a3b8" stroke-width="0.75"/>
  <text x="305.1" y="212.9" text-anchor="middle" font-size="7" fill="#0c4a6e" pointer-events="none">306</text>
  <path id="section-307" data-section="307" d="M 318.51 221.64 L 303.42 201.95 A 278.40 134.40 0 0 1 313.90 200.19 L 327.35 220.16 A 234.90 113.40 0 0 0 318.51 221.64 Z" fill="#dbeafe" stroke="#94a3b8" stroke-width="0.75"/>
  <text x="315.8" y="211.0" text-anchor="middle" font-size="7" fill="#0c4a6e" pointer-events="none">307</text>
  <path id="section-308" data-section="308" d="M 328.34 220.01 L 315.07 200.01 A 278.40 134.40 0 0 1 325.70 198.47 L 337.31 218.71 A 234.90 113.40 0 0 0 328.34 220.01 Z" fill="#dbeafe" stroke="#94a3b8" stroke-width="0.75"/>
  <text x="326.6" y="209.3" text-anchor="middle" font-size="7" fill="#0c4a6e" pointer-events="none">308</text>
  <path id="section-309" data-section="309" d="M 338.32 218.58 L 326.89 198.32 A 278.40 134.40 0 0 1 337.65 197.01 L 347.40 217.48 A 234.90 113.40 0 0 0 338.32 218.58 Z" fill="#dbeafe" stroke="#94a3b8" stroke-width="0.75"/>
  <text x="337.6" y="207.8" text-anchor="middle" font-size="7" fill="#0c4a6e" pointer-events="none">309</text>
  <path id="section-310" data-section="310" d="M 348.41 217.37 L 338.86 196.88 A 278.40 134.40 0 0 1 349.73 195.81 L 357.58 216.46 A 234.90 113.40 0 0 0 348.41 217.37 Z" fill="#dbeafe" stroke="#94a3b8" stroke-width="0.75"/>
  <text x="348.6" y="206.6" text-anchor="middle" font-size="7" fill="#0c4a6e" pointer-events="none">310</text>
  <path id="section-311" data-section="311" d="M 358.61 216.37 L 350.94 195.70 A 278.40 134.40 0 0 1 361.90 194.86 L 367.85 215.67 A 234.90 113.40 0 0 0 358.61 216.37 Z" fill="#dbeafe" stroke="#94a3b8" stroke-width="0.75"/>
  <text x="359.8" y="205.6" text-anchor="middle" font-size="7" fill="#0c4a6e" pointer-events="none">311</text>
  <path id="section-312" data-section="312" d="M 368.88 215.60 L 363.12 194.78 A 278.40 134.40 0 0 1 374.15 194.18 L 378.19 215.09 A 234.90 113.40 0 0 0 368.88 215.60 Z" fill="#dbeafe" stroke="#94a3b8" stroke-width="0.75"/>
  <text x="371.1" y="204.9" text-anchor="middle" font-size="7" fill="#0c4a6e" pointer-events="none">312</text>
  <path id="section-313" data-section="313" d="M 379.22 215.04 L 375.37 194.13 A 278.40 134.40 0 0 1 386.44 193.76 L 388.56 214.73 A 234.90 113.40 0 0 0 379.22 215.04 Z" fill="#dbeafe" stroke="#94a3b8" stroke-width="0.75"/>
  <text x="382.4" y="204.4" text-anchor="middle" font-size="7" fill="#0c4a6e" pointer-events="none">313</text>
  <path id="section-314" data-section="314" d="M 389.60 214.71 L 387.67 193.73 A 278.40 134.40 0 0 1 398.77 193.60 L 398.96 214.60 A 234.90 113.40 0 0 0 389.60 214.71 Z" fill="#dbeafe" stroke="#94a3b8" stroke-width="0.75"/>
  <text x="393.7" y="204.1" text-anchor="middle" font-size="7" fill="#0c4a6e" pointer-events="none">314</text>
  <path id="section-315" data-section="315" d="M 400.00 214.60 L 400.00 193.60 A 278.40 134.40 0 0 1 411.09 193.71 L 409.36 214.69 A 234.90 113.40 0 0 0 400.00 214.60 Z" fill="#dbeafe" stroke="#94a3b8" stroke-width="0.75"/>
  <text x="405.1" y="204.1" text-anchor="middle" font-size="7" fill="#0c4a6e" pointer-events="none">315</text>
  <path id="section-316" data-section="316" d="M 410.40 214.71 L 412.33 193.73 A 278.40 134.40 0 0 1 423.40 194.08 L 419.74 215.00 A 234.90 113.40 0 0 0 410.40 214.71 Z" fill="#dbeafe" stroke="#94a3b8" stroke-width="0.75"/>
  <text x="416.5" y="204.4" text-anchor="middle" font-size="7" fill="#0c4a6e" pointer-events="none">316</text>
  <path id="section-317" data-section="317" d="M 420.78 215.04 L 424.63 194.13 A 278.40 134.40 0 0 1 435.66 194.71 L 430.09 215.53 A 234.90 113.40 0 0 0 420.78 215.04 Z" fill="#dbeafe" stroke="#94a3b8" stroke-width="0.75"/>
  <text x="427.8" y="204.8" text-anchor="middle" font-size="7" fill="#0c4a6e" pointer-events="none">317</text>
  <path id="section-318" data-section="318" d="M 431.12 215.60 L 436.88 194.78 A 278.40 134.40 0 0 1 447.84 195.60 L 440.37 216.29 A 234.90 113.40 0 0 0 431.12 215.60 Z" fill="#dbeafe" stroke="#94a3b8" stroke-width="0.75"/>
  <text x="439.1" y="205.5" text-anchor="middle" font-size="7" fill="#0c4a6e" pointer-events="none">318</text>
  <path id="section-319" data-section="319" d="M 441.39 216.37 L 449.06 195.70 A 278.40 134.40 0 0 1 459.94 196.75 L 450.57 217.26 A 234.90 113.40 0 0 0 441.39 216.37 Z" fill="#dbeafe" stroke="#94a3b8" stroke-width="0.75"/>
  <text x="450.3" y="206.5" text-anchor="middle" font-size="7" fill="#0c4a6e" pointer-events="none">319</text>
  <path id="section-320" data-section="320" d="M 451.59 217.37 L 461.14 196.88 A 278.40 134.40 0 0 1 471.92 198.16 L 460.68 218.45 A 234.90 113.40 0 0 0 451.59 217.37 Z" fill="#dbeafe" stroke="#94a3b8" stroke-width="0.75"/>
  <text x="461.3" y="207.7" text-anchor="middle" font-size="7" fill="#0c4a6e" pointer-events="none">320</text>
  <path id="section-321" data-section="321" d="M 461.68 218.58 L 473.11 198.32 A 278.40 134.40 0 0 1 483.75 199.83 L 470.67 219.85 A 234.90 113.40 0 0 0 461.68 218.58 Z" fill="#dbeafe" stroke="#94a3b8" stroke-width="0.75"/>
  <text x="472.3" y="209.1" text-anchor="middle" font-size="7" fill="#0c4a6e" pointer-events="none">321</text>
  <path id="section-322" data-section="322" d="M 471.66 220.01 L 484.93 200.01 A 278.40 134.40 0 0 1 495.43 201.74 L 480.52 221.47 A 234.90 113.40 0 0 0 471.66 220.01 Z" fill="#dbeafe" stroke="#94a3b8" stroke-width="0.75"/>
  <text x="483.1" y="210.8" text-anchor="middle" font-size="7" fill="#0c4a6e" pointer-events="none">322</text>
  <path id="section-323" data-section="323" d="M 481.49 221.64 L 496.58 201.95 A 278.40 134.40 0 0 1 506.91 203.90 L 490.21 223.29 A 234.90 113.40 0 0 0 481.49 221.64 Z" fill="#dbeafe" stroke="#94a3b8" stroke-width="0.75"/>
  <text x="493.8" y="212.7" text-anchor="middle" font-size="7" fill="#0c4a6e" pointer-events="none">323</text>
  <path id="section-324" data-section="324" d="M 491.17 223.49 L 508.05 204.13 A 278.40 134.40 0 0 1 518.19 206.31 L 499.72 225.33 A 234.90 113.40 0 0 0 491.17 223.49 Z" fill="#dbeafe" stroke="#94a3b8" stroke-width="0.75"/>
  <text x="504.3" y="214.8" text-anchor="middle" font-size="7" fill="#0c4a6e" pointer-events="none">324</text>
  <path id="section-325" data-section="325" d="M 500.66 225.54 L 519.30 206.57 A 278.40 134.40 0 0 1 529.23 208.96 L 509.04 227.56 A 234.90 113.40 0 0 0 500.66 225.54 Z" fill="#dbeafe" stroke="#94a3b8" stroke-width="0.75"/>
  <text x="514.6" y="217.1" text-anchor="middle" font-size="7" fill="#0c4a6e" pointer-events="none">325</text>
  <path id="section-326" data-section="326" d="M 509.96 227.79 L 530.32 209.23 A 278.40 134.40 0 0 1 540.02 211.84 L 518.14 229.99 A 234.90 113.40 0 0 0 509.96 227.79 Z" fill="#dbeafe" stroke="#94a3b8" stroke-width="0.75"/>
  <text x="524.6" y="219.7" text-anchor="middle" font-size="7" fill="#0c4a6e" pointer-events="none">326</text>
  <path id="section-327" data-section="327" d="M 519.04 230.24 L 541.08 212.14 A 278.40 134.40 0 0 1 550.53 214.94 L 527.01 232.61 A 234.90 113.40 0 0 0 519.04 230.24 Z" fill="#dbeafe" stroke="#94a3b8" stroke-width="0.75"/>
  <text x="534.4" y="222.5" text-anchor="middle" font-size="7" fill="#0c4a6e" pointer-events="none">327</text>
  <path id="section-328" data-section="328" d="M 527.89 232.88 L 551.57 215.26 A 278.40 134.40 0 0 1 560.76 218.27 L 535.64 235.42 A 234.90 113.40 0 0 0 527.89 232.88 Z" fill="#dbeafe" stroke="#94a3b8" stroke-width="0.75"/>
  <text x="544.0" y="225.4" text-anchor="middle" font-size="7" fill="#0c4a6e" pointer-events="none">328</text>
  <path id="section-201" data-section="201" d="M 302.03 385.17 L 255.81 412.14 A 226.20 109.20 0 0 1 240.33 405.35 L 291.50 380.56 A 153.70 74.20 0 0 0 302.03 385.17 Z" fill="#dbeafe" stroke="#94a3b8" stroke-width="0.75"/>
  <text x="272.3" y="395.9" text-anchor="middle" font-size="7" fill="#0c4a6e" pointer-events="none">201</text>
  <path id="section-202" data-section="202" d="M 290.39 380.02 L 238.69 404.55 A 226.20 109.20 0 0 1 224.73 397.03 L 280.90 374.90 A 153.70 74.20 0 0 0 290.39 380.02 Z" fill="#dbeafe" stroke="#94a3b8" stroke-width="0.75"/>
  <text x="258.5" y="389.2" text-anchor="middle" font-size="7" fill="#0c4a6e" pointer-events="none">202</text>
  <path id="section-203" data-section="203" d="M 279.91 374.31 L 223.26 396.15 A 226.20 109.20 0 0 1 210.98 387.98 L 271.56 368.76 A 153.70 74.20 0 0 0 279.91 374.31 Z" fill="#dbeafe" stroke="#94a3b8" stroke-width="0.75"/>
  <text x="246.3" y="381.9" text-anchor="middle" font-size="7" fill="#0c4a6e" pointer-events="none">203</text>
  <path id="section-204" data-section="204" d="M 270.70 368.12 L 209.71 387.04 A 226.20 109.20 0 0 1 199.22 378.30 L 263.57 362.18 A 153.70 74.20 0 0 0 270.70 368.12 Z" fill="#dbeafe" stroke="#94a3b8" stroke-width="0.75"/>
  <text x="235.6" y="374.0" text-anchor="middle" font-size="7" fill="#0c4a6e" pointer-events="none">204</text>
  <path id="section-205" data-section="205" d="M 262.85 361.50 L 198.16 377.30 A 226.20 109.20 0 0 1 189.59 368.08 L 257.03 355.24 A 153.70 74.20 0 0 0 262.85 361.50 Z" fill="#dbeafe" stroke="#94a3b8" stroke-width="0.75"/>
  <text x="226.7" y="365.6" text-anchor="middle" font-size="7" fill="#0c4a6e" pointer-events="none">205</text>
  <path id="section-206" data-section="206" d="M 256.46 354.52 L 188.75 367.04 A 226.20 109.20 0 0 1 182.18 357.45 L 251.99 348.01 A 153.70 74.20 0 0 0 256.46 354.52 Z" fill="#dbeafe" stroke="#94a3b8" stroke-width="0.75"/>
  <text x="219.7" y="356.8" text-anchor="middle" font-size="7" fill="#0c4a6e" pointer-events="none">206</text>
  <path id="section-207" data-section="207" d="M 251.58 347.27 L 181.56 356.36 A 226.20 109.20 0 0 1 177.07 346.50 L 248.52 340.57 A 153.70 74.20 0 0 0 251.58 347.27 Z" fill="#dbeafe" stroke="#94a3b8" stroke-width="0.75"/>
  <text x="214.5" y="347.7" text-anchor="middle" font-size="7" fill="#0c4a6e" pointer-events="none">207</text>
  <path id="section-208" data-section="208" d="M 248.26 339.82 L 176.69 345.39 A 226.20 109.20 0 0 1 174.31 335.35 L 246.65 333.00 A 153.70 74.20 0 0 0 248.26 339.82 Z" fill="#dbeafe" stroke="#94a3b8" stroke-width="0.75"/>
  <text x="211.3" y="338.4" text-anchor="middle" font-size="7" fill="#0c4a6e" pointer-events="none">208</text>
  <path id="section-209" data-section="209" d="M 246.55 332.24 L 174.17 334.23 A 226.20 109.20 0 0 1 173.94 324.13 L 246.40 325.37 A 153.70 74.20 0 0 0 246.55 332.24 Z" fill="#dbeafe" stroke="#94a3b8" stroke-width="0.75"/>
  <text x="210.1" y="329.0" text-anchor="middle" font-size="7" fill="#0c4a6e" pointer-events="none">209</text>
  <path id="section-210" data-section="210" d="M 246.46 324.61 L 174.04 323.01 A 226.20 109.20 0 0 1 175.96 312.95 L 247.77 317.78 A 153.70 74.20 0 0 0 246.46 324.61 Z" fill="#dbeafe" stroke="#94a3b8" stroke-width="0.75"/>
  <text x="210.9" y="319.6" text-anchor="middle" font-size="7" fill="#0c4a6e" pointer-events="none">210</text>
  <path id="section-211" data-section="211" d="M 247.99 317.02 L 176.29 311.84 A 226.20 109.20 0 0 1 180.34 301.93 L 250.74 310.29 A 153.70 74.20 0 0 0 247.99 317.02 Z" fill="#dbeafe" stroke="#94a3b8" stroke-width="0.75"/>
  <text x="213.6" y="310.3" text-anchor="middle" font-size="7" fill="#0c4a6e" pointer-events="none">211</text>
  <path id="section-212" data-section="212" d="M 281.57 280.70 L 225.71 258.39 A 226.20 109.20 0 0 1 251.17 245.76 L 298.87 272.12 A 153.70 74.20 0 0 0 281.57 280.70 Z" fill="#dbeafe" stroke="#94a3b8" stroke-width="0.75"/>
  <text x="263.9" y="264.0" text-anchor="middle" font-size="7" fill="#0c4a6e" pointer-events="none">212</text>
  <path id="section-213" data-section="213" d="M 300.97 271.25 L 254.26 244.49 A 226.20 109.20 0 0 1 283.98 234.26 L 321.17 264.30 A 153.70 74.20 0 0 0 300.97 271.25 Z" fill="#dbeafe" stroke="#94a3b8" stroke-width="0.75"/>
  <text x="289.7" y="253.3" text-anchor="middle" font-size="7" fill="#0c4a6e" pointer-events="none">213</text>
  <path id="section-214" data-section="214" d="M 323.55 263.63 L 287.49 233.27 A 226.20 109.20 0 0 1 320.52 225.76 L 345.99 258.53 A 153.70 74.20 0 0 0 323.55 263.63 Z" fill="#dbeafe" stroke="#94a3b8" stroke-width="0.75"/>
  <text x="319.1" y="245.0" text-anchor="middle" font-size="7" fill="#0c4a6e" pointer-events="none">214</text>
  <path id="section-215" data-section="215" d="M 348.59 258.07 L 324.33 225.09 A 226.20 109.20 0 0 1 359.61 220.55 L 372.56 254.99 A 153.70 74.20 0 0 0 348.59 258.07 Z" fill="#dbeafe" stroke="#94a3b8" stroke-width="0.75"/>
  <text x="351.1" y="239.4" text-anchor="middle" font-size="7" fill="#0c4a6e" pointer-events="none">215</text>
  <path id="section-218" data-section="218" d="M 375.27 254.77 L 363.61 220.22 A 226.20 109.20 0 0 1 400.00 218.80 L 400.00 253.80 A 153.70 74.20 0 0 0 375.27 254.77 Z" fill="#dbeafe" stroke="#94a3b8" stroke-width="0.75"/>
  <text x="384.7" y="236.6" text-anchor="middle" font-size="7" fill="#0c4a6e" pointer-events="none">218</text>
  <path id="section-219" data-section="219" d="M 402.76 253.81 L 404.06 218.82 A 226.20 109.20 0 0 1 440.39 220.55 L 427.44 254.99 A 153.70 74.20 0 0 0 402.76 253.81 Z" fill="#dbeafe" stroke="#94a3b8" stroke-width="0.75"/>
  <text x="418.7" y="236.7" text-anchor="middle" font-size="7" fill="#0c4a6e" pointer-events="none">219</text>
  <path id="section-220" data-section="220" d="M 430.15 255.24 L 444.38 220.92 A 226.20 109.20 0 0 1 479.48 225.76 L 454.01 258.53 A 153.70 74.20 0 0 0 430.15 255.24 Z" fill="#dbeafe" stroke="#94a3b8" stroke-width="0.75"/>
  <text x="452.2" y="239.8" text-anchor="middle" font-size="7" fill="#0c4a6e" pointer-events="none">220</text>
  <path id="section-221" data-section="221" d="M 497.97 270.83 L 544.19 243.86 A 226.20 109.20 0 0 1 567.30 254.51 L 513.68 278.06 A 153.70 74.20 0 0 0 497.97 270.83 Z" fill="#dbeafe" stroke="#94a3b8" stroke-width="0.75"/>
  <text x="531.1" y="261.6" text-anchor="middle" font-size="7" fill="#0c4a6e" pointer-events="none">221</text>
  <path id="section-222" data-section="222" d="M 515.29 278.93 L 569.68 255.78 A 226.20 109.20 0 0 1 589.06 268.05 L 528.46 287.26 A 153.70 74.20 0 0 0 515.29 278.93 Z" fill="#dbeafe" stroke="#94a3b8" stroke-width="0.75"/>
  <text x="551.0" y="272.4" text-anchor="middle" font-size="7" fill="#0c4a6e" pointer-events="none">222</text>
  <path id="section-223" data-section="223" d="M 529.77 288.24 L 590.99 269.49 A 226.20 109.20 0 0 1 606.16 283.06 L 540.08 297.47 A 153.70 74.20 0 0 0 529.77 288.24 Z" fill="#dbeafe" stroke="#94a3b8" stroke-width="0.75"/>
  <text x="567.2" y="284.5" text-anchor="middle" font-size="7" fill="#0c4a6e" pointer-events="none">223</text>
  <path id="section-224" data-section="224" d="M 541.06 298.53 L 607.60 284.63 A 226.20 109.20 0 0 1 618.18 299.19 L 548.25 308.42 A 153.70 74.20 0 0 0 541.06 298.53 Z" fill="#dbeafe" stroke="#94a3b8" stroke-width="0.75"/>
  <text x="579.2" y="297.6" text-anchor="middle" font-size="7" fill="#0c4a6e" pointer-events="none">224</text>
  <path id="section-225" data-section="225" d="M 548.87 309.55 L 619.09 300.84 A 226.20 109.20 0 0 1 624.83 316.02 L 552.77 319.86 A 153.70 74.20 0 0 0 548.87 309.55 Z" fill="#dbeafe" stroke="#94a3b8" stroke-width="0.75"/>
  <text x="586.9" y="311.5" text-anchor="middle" font-size="7" fill="#0c4a6e" pointer-events="none">225</text>
  <path id="section-226" data-section="226" d="M 553.02 321.02 L 625.20 317.72 A 226.20 109.20 0 0 1 625.95 333.14 L 553.53 331.50 A 153.70 74.20 0 0 0 553.02 321.02 Z" fill="#dbeafe" stroke="#94a3b8" stroke-width="0.75"/>
  <text x="589.9" y="325.8" text-anchor="middle" font-size="7" fill="#0c4a6e" pointer-events="none">226</text>
  <path id="section-227" data-section="227" d="M 553.40 332.66 L 625.75 334.86 A 226.20 109.20 0 0 1 621.50 350.14 L 550.51 343.05 A 153.70 74.20 0 0 0 553.40 332.66 Z" fill="#dbeafe" stroke="#94a3b8" stroke-width="0.75"/>
  <text x="588.3" y="340.2" text-anchor="middle" font-size="7" fill="#0c4a6e" pointer-events="none">227</text>
  <path id="section-228" data-section="228" d="M 550.00 344.19 L 620.75 351.82 A 226.20 109.20 0 0 1 611.60 366.60 L 543.78 354.23 A 153.70 74.20 0 0 0 550.00 344.19 Z" fill="#dbeafe" stroke="#94a3b8" stroke-width="0.75"/>
  <text x="582.0" y="354.3" text-anchor="middle" font-size="7" fill="#0c4a6e" pointer-events="none">228</text>
  <path id="section-229" data-section="229" d="M 542.91 355.31 L 610.32 368.20 A 226.20 109.20 0 0 1 596.48 382.10 L 533.51 364.76 A 153.70 74.20 0 0 0 542.91 355.31 Z" fill="#dbeafe" stroke="#94a3b8" stroke-width="0.75"/>
  <text x="571.2" y="367.7" text-anchor="middle" font-size="7" fill="#0c4a6e" pointer-events="none">229</text>
  <path id="section-230" data-section="230" d="M 532.30 365.77 L 594.70 383.59 A 226.20 109.20 0 0 1 576.53 396.28 L 519.95 374.39 A 153.70 74.20 0 0 0 532.30 365.77 Z" fill="#dbeafe" stroke="#94a3b8" stroke-width="0.75"/>
  <text x="556.3" y="380.1" text-anchor="middle" font-size="7" fill="#0c4a6e" pointer-events="none">230</text>
  <path id="section-231" data-section="231" d="M 518.43 375.30 L 574.29 397.61 A 226.20 109.20 0 0 1 552.24 408.77 L 503.44 382.88 A 153.70 74.20 0 0 0 518.43 375.30 Z" fill="#dbeafe" stroke="#94a3b8" stroke-width="0.75"/>
  <text x="537.4" y="391.3" text-anchor="middle" font-size="7" fill="#0c4a6e" pointer-events="none">231</text>
  <path id="section-232" data-section="232" d="M 501.64 383.66 L 549.59 409.91 A 226.20 109.20 0 0 1 524.19 419.27 L 484.38 390.02 A 153.70 74.20 0 0 0 501.64 383.66 Z" fill="#dbeafe" stroke="#94a3b8" stroke-width="0.75"/>
  <text x="515.2" y="400.9" text-anchor="middle" font-size="7" fill="#0c4a6e" pointer-events="none">232</text>
  <path id="section-240" data-section="240" d="M 456.58 396.99 L 483.27 429.53 A 226.20 109.20 0 0 1 441.55 435.34 L 428.23 400.94 A 153.70 74.20 0 0 0 456.58 396.99 Z" fill="#dbeafe" stroke="#94a3b8" stroke-width="0.75"/>
  <text x="452.7" y="416.1" text-anchor="middle" font-size="7" fill="#0c4a6e" pointer-events="none">240</text>
  <path id="section-243" data-section="243" d="M 425.00 401.21 L 436.79 435.75 A 226.20 109.20 0 0 1 393.46 437.15 L 395.56 402.17 A 153.70 74.20 0 0 0 425.00 401.21 Z" fill="#dbeafe" stroke="#94a3b8" stroke-width="0.75"/>
  <text x="412.8" y="419.5" text-anchor="middle" font-size="7" fill="#0c4a6e" pointer-events="none">243</text>
  <path id="section-244" data-section="244" d="M 392.28 402.11 L 388.63 437.06 A 226.20 109.20 0 0 1 345.68 434.00 L 363.09 400.03 A 153.70 74.20 0 0 0 392.28 402.11 Z" fill="#dbeafe" stroke="#94a3b8" stroke-width="0.75"/>
  <text x="372.3" y="418.7" text-anchor="middle" font-size="7" fill="#0c4a6e" pointer-events="none">244</text>
  <path id="section-245" data-section="245" d="M 359.91 399.63 L 341.00 433.42 A 226.20 109.20 0 0 1 300.36 426.03 L 332.29 394.61 A 153.70 74.20 0 0 0 359.91 399.63 Z" fill="#dbeafe" stroke="#94a3b8" stroke-width="0.75"/>
  <text x="333.1" y="413.8" text-anchor="middle" font-size="7" fill="#0c4a6e" pointer-events="none">245</text>
  <path id="section-246" data-section="246" d="M 329.36 393.90 L 296.04 424.98 A 226.20 109.20 0 0 1 259.57 413.61 L 304.58 386.17 A 153.70 74.20 0 0 0 329.36 393.90 Z" fill="#dbeafe" stroke="#94a3b8" stroke-width="0.75"/>
  <text x="296.9" y="405.0" text-anchor="middle" font-size="7" fill="#0c4a6e" pointer-events="none">246</text>
  <path id="section-101" data-section="101" d="M 340.95 372.92 L 322.31 387.10 A 145.00 70.00 0 0 1 311.94 383.61 L 333.07 370.27 A 110.20 53.20 0 0 0 340.95 372.92 Z" fill="#dbeafe" stroke="#94a3b8" stroke-width="0.75"/>
  <text x="327.0" y="378.5" text-anchor="middle" font-size="7" fill="#0c4a6e" pointer-events="none">101</text>
  <path id="section-102" data-section="102" d="M 332.23 369.95 L 310.83 383.20 A 145.00 70.00 0 0 1 301.21 379.24 L 324.92 366.94 A 110.20 53.20 0 0 0 332.23 369.95 Z" fill="#dbeafe" stroke="#94a3b8" stroke-width="0.75"/>
  <text x="317.2" y="374.9" text-anchor="middle" font-size="7" fill="#0c4a6e" pointer-events="none">102</text>
  <path id="section-103" data-section="103" d="M 324.14 366.59 L 300.19 378.78 A 145.00 70.00 0 0 1 291.41 374.39 L 317.47 363.25 A 110.20 53.20 0 0 0 324.14 366.59 Z" fill="#dbeafe" stroke="#94a3b8" stroke-width="0.75"/>
  <text x="308.2" y="370.8" text-anchor="middle" font-size="7" fill="#0c4a6e" pointer-events="none">103</text>
  <path id="section-104" data-section="104" d="M 316.77 362.87 L 290.48 373.88 A 145.00 70.00 0 0 1 282.63 369.10 L 310.80 359.24 A 110.20 53.20 0 0 0 316.77 362.87 Z" fill="#dbeafe" stroke="#94a3b8" stroke-width="0.75"/>
  <text x="300.1" y="366.3" text-anchor="middle" font-size="7" fill="#0c4a6e" pointer-events="none">104</text>
  <path id="section-105" data-section="105" d="M 310.17 358.82 L 281.81 368.55 A 145.00 70.00 0 0 1 274.94 363.43 L 304.96 354.93 A 110.20 53.20 0 0 0 310.17 358.82 Z" fill="#dbeafe" stroke="#94a3b8" stroke-width="0.75"/>
  <text x="292.9" y="361.5" text-anchor="middle" font-size="7" fill="#0c4a6e" pointer-events="none">105</text>
  <path id="section-106" data-section="106" d="M 304.42 354.48 L 274.24 362.84 A 145.00 70.00 0 0 1 268.43 357.42 L 300.01 350.36 A 110.20 53.20 0 0 0 304.42 354.48 Z" fill="#dbeafe" stroke="#94a3b8" stroke-width="0.75"/>
  <text x="286.7" y="356.3" text-anchor="middle" font-size="7" fill="#0c4a6e" pointer-events="none">106</text>
  <path id="section-107" data-section="107" d="M 299.56 349.89 L 267.85 356.81 A 145.00 70.00 0 0 1 263.15 351.14 L 296.00 345.59 A 110.20 53.20 0 0 0 299.56 349.89 Z" fill="#dbeafe" stroke="#94a3b8" stroke-width="0.75"/>
  <text x="281.5" y="350.9" text-anchor="middle" font-size="7" fill="#0c4a6e" pointer-events="none">107</text>
  <path id="section-108" data-section="108" d="M 295.65 345.10 L 262.70 350.50 A 145.00 70.00 0 0 1 259.16 344.64 L 292.96 340.65 A 110.20 53.20 0 0 0 295.65 345.10 Z" fill="#dbeafe" stroke="#94a3b8" stroke-width="0.75"/>
  <text x="277.5" y="345.2" text-anchor="middle" font-size="7" fill="#0c4a6e" pointer-events="none">108</text>
  <path id="section-109" data-section="109" d="M 292.71 340.15 L 258.83 343.98 A 145.00 70.00 0 0 1 256.48 337.99 L 290.93 335.59 A 110.20 53.20 0 0 0 292.71 340.15 Z" fill="#dbeafe" stroke="#94a3b8" stroke-width="0.75"/>
  <text x="274.6" y="339.4" text-anchor="middle" font-size="7" fill="#0c4a6e" pointer-events="none">109</text>
  <path id="section-110" data-section="110" d="M 290.78 335.08 L 256.29 337.32 A 145.00 70.00 0 0 1 255.16 331.24 L 289.92 330.46 A 110.20 53.20 0 0 0 290.78 335.08 Z" fill="#dbeafe" stroke="#94a3b8" stroke-width="0.75"/>
  <text x="272.9" y="333.5" text-anchor="middle" font-size="7" fill="#0c4a6e" pointer-events="none">110</text>
  <path id="section-111" data-section="111" d="M 289.87 329.95 L 255.10 330.57 A 145.00 70.00 0 0 1 255.19 324.46 L 289.94 325.31 A 110.20 53.20 0 0 0 289.87 329.95 Z" fill="#dbeafe" stroke="#94a3b8" stroke-width="0.75"/>
  <text x="272.4" y="327.6" text-anchor="middle" font-size="7" fill="#0c4a6e" pointer-events="none">111</text>
  <path id="section-112" data-section="112" d="M 290.00 324.80 L 255.26 323.79 A 145.00 70.00 0 0 1 256.57 317.72 L 290.99 320.19 A 110.20 53.20 0 0 0 290.00 324.80 Z" fill="#dbeafe" stroke="#94a3b8" stroke-width="0.75"/>
  <text x="273.1" y="321.6" text-anchor="middle" font-size="7" fill="#0c4a6e" pointer-events="none">112</text>
  <path id="section-113" data-section="113" d="M 459.05 283.08 L 477.69 268.90 A 145.00 70.00 0 0 1 486.15 271.69 L 465.47 285.21 A 110.20 53.20 0 0 0 459.05 283.08 Z" fill="#dbeafe" stroke="#94a3b8" stroke-width="0.75"/>
  <text x="472.1" y="277.2" text-anchor="middle" font-size="7" fill="#0c4a6e" pointer-events="none">113</text>
  <path id="section-116" data-section="116" d="M 466.17 285.46 L 487.06 272.02 A 145.00 70.00 0 0 1 495.03 275.13 L 472.23 287.82 A 110.20 53.20 0 0 0 466.17 285.46 Z" fill="#dbeafe" stroke="#94a3b8" stroke-width="0.75"/>
  <text x="480.2" y="280.1" text-anchor="middle" font-size="7" fill="#0c4a6e" pointer-events="none">116</text>
  <path id="section-117" data-section="117" d="M 472.88 288.09 L 495.89 275.49 A 145.00 70.00 0 0 1 503.33 278.89 L 478.53 290.68 A 110.20 53.20 0 0 0 472.88 288.09 Z" fill="#dbeafe" stroke="#94a3b8" stroke-width="0.75"/>
  <text x="487.7" y="283.3" text-anchor="middle" font-size="7" fill="#0c4a6e" pointer-events="none">117</text>
  <path id="section-118" data-section="118" d="M 479.14 290.98 L 504.13 279.29 A 145.00 70.00 0 0 1 511.00 282.96 L 484.36 293.77 A 110.20 53.20 0 0 0 479.14 290.98 Z" fill="#dbeafe" stroke="#94a3b8" stroke-width="0.75"/>
  <text x="494.7" y="286.7" text-anchor="middle" font-size="7" fill="#0c4a6e" pointer-events="none">118</text>
  <path id="section-119" data-section="119" d="M 484.91 294.09 L 511.72 283.38 A 145.00 70.00 0 0 1 517.97 287.30 L 489.66 297.07 A 110.20 53.20 0 0 0 484.91 294.09 Z" fill="#dbeafe" stroke="#94a3b8" stroke-width="0.75"/>
  <text x="501.1" y="290.4" text-anchor="middle" font-size="7" fill="#0c4a6e" pointer-events="none">119</text>
  <path id="section-120" data-section="120" d="M 490.16 297.41 L 518.63 287.75 A 145.00 70.00 0 0 1 524.22 291.89 L 494.41 300.56 A 110.20 53.20 0 0 0 490.16 297.41 Z" fill="#dbeafe" stroke="#94a3b8" stroke-width="0.75"/>
  <text x="506.9" y="294.4" text-anchor="middle" font-size="7" fill="#0c4a6e" pointer-events="none">120</text>
  <path id="section-121" data-section="121" d="M 494.85 300.92 L 524.81 292.37 A 145.00 70.00 0 0 1 529.71 296.71 L 498.58 304.22 A 110.20 53.20 0 0 0 494.85 300.92 Z" fill="#dbeafe" stroke="#94a3b8" stroke-width="0.75"/>
  <text x="512.1" y="298.5" text-anchor="middle" font-size="7" fill="#0c4a6e" pointer-events="none">121</text>
  <path id="section-122" data-section="122" d="M 498.96 304.60 L 530.21 297.20 A 145.00 70.00 0 0 1 534.39 301.72 L 502.14 308.03 A 110.20 53.20 0 0 0 498.96 304.60 Z" fill="#dbeafe" stroke="#94a3b8" stroke-width="0.75"/>
  <text x="516.5" y="302.9" text-anchor="middle" font-size="7" fill="#0c4a6e" pointer-events="none">122</text>
  <path id="section-123" data-section="123" d="M 502.46 308.42 L 534.82 302.23 A 145.00 70.00 0 0 1 538.25 306.89 L 505.07 311.96 A 110.20 53.20 0 0 0 502.46 308.42 Z" fill="#dbeafe" stroke="#94a3b8" stroke-width="0.75"/>
  <text x="520.2" y="307.4" text-anchor="middle" font-size="7" fill="#0c4a6e" pointer-events="none">123</text>
  <path id="section-124" data-section="124" d="M 505.33 312.36 L 538.59 307.42 A 145.00 70.00 0 0 1 541.26 312.19 L 507.35 315.99 A 110.20 53.20 0 0 0 505.33 312.36 Z" fill="#dbeafe" stroke="#94a3b8" stroke-width="0.75"/>
  <text x="523.2" y="312.0" text-anchor="middle" font-size="7" fill="#0c4a6e" pointer-events="none">124</text>
  <path id="section-125" data-section="125" d="M 507.55 316.39 L 541.51 312.73 A 145.00 70.00 0 0 1 543.39 317.59 L 508.98 320.09 A 110.20 53.20 0 0 0 507.55 316.39 Z" fill="#dbeafe" stroke="#94a3b8" stroke-width="0.75"/>
  <text x="525.4" y="316.7" text-anchor="middle" font-size="7" fill="#0c4a6e" pointer-events="none">125</text>
  <path id="section-127" data-section="127" d="M 509.10 320.50 L 543.55 318.14 A 145.00 70.00 0 0 1 544.64 323.06 L 509.92 324.24 A 110.20 53.20 0 0 0 509.10 320.50 Z" fill="#dbeafe" stroke="#94a3b8" stroke-width="0.75"/>
  <text x="526.9" y="321.5" text-anchor="middle" font-size="7" fill="#0c4a6e" pointer-events="none">127</text>
  <path id="section-128" data-section="128" d="M 509.98 324.66 L 544.71 323.60 A 145.00 70.00 0 0 1 545.00 328.55 L 510.20 328.42 A 110.20 53.20 0 0 0 509.98 324.66 Z" fill="#dbeafe" stroke="#94a3b8" stroke-width="0.75"/>
  <text x="527.6" y="326.3" text-anchor="middle" font-size="7" fill="#0c4a6e" pointer-events="none">128</text>
  <path id="section-129" data-section="129" d="M 510.19 328.84 L 544.98 329.10 A 145.00 70.00 0 0 1 544.46 334.04 L 509.79 332.59 A 110.20 53.20 0 0 0 510.19 328.84 Z" fill="#dbeafe" stroke="#94a3b8" stroke-width="0.75"/>
  <text x="527.4" y="331.1" text-anchor="middle" font-size="7" fill="#0c4a6e" pointer-events="none">129</text>
  <path id="section-130" data-section="130" d="M 509.71 333.01 L 544.36 334.59 A 145.00 70.00 0 0 1 543.03 339.49 L 508.70 336.73 A 110.20 53.20 0 0 0 509.71 333.01 Z" fill="#dbeafe" stroke="#94a3b8" stroke-width="0.75"/>
  <text x="526.5" y="336.0" text-anchor="middle" font-size="7" fill="#0c4a6e" pointer-events="none">130</text>
  <path id="section-131" data-section="131" d="M 508.56 337.15 L 542.84 340.04 A 145.00 70.00 0 0 1 540.72 344.88 L 506.95 340.83 A 110.20 53.20 0 0 0 508.56 337.15 Z" fill="#dbeafe" stroke="#94a3b8" stroke-width="0.75"/>
  <text x="524.8" y="340.7" text-anchor="middle" font-size="7" fill="#0c4a6e" pointer-events="none">131</text>
  <path id="section-132" data-section="132" d="M 506.74 341.23 L 540.44 345.41 A 145.00 70.00 0 0 1 537.55 350.15 L 504.54 344.84 A 110.20 53.20 0 0 0 506.74 341.23 Z" fill="#dbeafe" stroke="#94a3b8" stroke-width="0.75"/>
  <text x="522.4" y="345.4" text-anchor="middle" font-size="7" fill="#0c4a6e" pointer-events="none">132</text>
  <path id="section-133" data-section="133" d="M 504.26 345.23 L 537.18 350.67 A 145.00 70.00 0 0 1 533.52 355.29 L 501.48 348.74 A 110.20 53.20 0 0 0 504.26 345.23 Z" fill="#dbeafe" stroke="#94a3b8" stroke-width="0.75"/>
  <text x="519.2" y="350.0" text-anchor="middle" font-size="7" fill="#0c4a6e" pointer-events="none">133</text>
  <path id="section-134" data-section="134" d="M 501.14 349.13 L 533.07 355.80 A 145.00 70.00 0 0 1 528.67 360.27 L 497.79 352.52 A 110.20 53.20 0 0 0 501.14 349.13 Z" fill="#dbeafe" stroke="#94a3b8" stroke-width="0.75"/>
  <text x="515.2" y="354.4" text-anchor="middle" font-size="7" fill="#0c4a6e" pointer-events="none">134</text>
  <path id="section-135" data-section="135" d="M 497.39 352.89 L 528.15 360.76 A 145.00 70.00 0 0 1 523.03 365.04 L 493.51 356.15 A 110.20 53.20 0 0 0 497.39 352.89 Z" fill="#dbeafe" stroke="#94a3b8" stroke-width="0.75"/>
  <text x="510.6" y="358.7" text-anchor="middle" font-size="7" fill="#0c4a6e" pointer-events="none">135</text>
  <path id="section-136" data-section="136" d="M 493.04 356.51 L 522.43 365.51 A 145.00 70.00 0 0 1 516.63 369.59 L 488.64 359.61 A 110.20 53.20 0 0 0 493.04 356.51 Z" fill="#dbeafe" stroke="#94a3b8" stroke-width="0.75"/>
  <text x="505.3" y="362.8" text-anchor="middle" font-size="7" fill="#0c4a6e" pointer-events="none">136</text>
  <path id="section-137" data-section="137" d="M 488.13 359.94 L 515.95 370.03 A 145.00 70.00 0 0 1 509.52 373.88 L 483.23 362.87 A 110.20 53.20 0 0 0 488.13 359.94 Z" fill="#dbeafe" stroke="#94a3b8" stroke-width="0.75"/>
  <text x="499.3" y="366.7" text-anchor="middle" font-size="7" fill="#0c4a6e" pointer-events="none">137</text>
  <path id="section-139" data-section="139" d="M 482.66 363.18 L 508.77 374.29 A 145.00 70.00 0 0 1 501.72 377.88 L 477.31 365.91 A 110.20 53.20 0 0 0 482.66 363.18 Z" fill="#dbeafe" stroke="#94a3b8" stroke-width="0.75"/>
  <text x="492.7" y="370.3" text-anchor="middle" font-size="7" fill="#0c4a6e" pointer-events="none">139</text>
  <path id="section-140" data-section="140" d="M 476.69 366.20 L 500.91 378.27 A 145.00 70.00 0 0 1 493.30 381.58 L 470.91 368.72 A 110.20 53.20 0 0 0 476.69 366.20 Z" fill="#dbeafe" stroke="#94a3b8" stroke-width="0.75"/>
  <text x="485.5" y="373.7" text-anchor="middle" font-size="7" fill="#0c4a6e" pointer-events="none">140</text>
  <path id="section-142" data-section="142" d="M 459.05 372.92 L 477.69 387.10 A 145.00 70.00 0 0 1 458.92 391.96 L 444.78 376.61 A 110.20 53.20 0 0 0 459.05 372.92 Z" fill="#dbeafe" stroke="#94a3b8" stroke-width="0.75"/>
  <text x="460.3" y="382.3" text-anchor="middle" font-size="7" fill="#0c4a6e" pointer-events="none">142</text>
  <path id="section-143" data-section="143" d="M 443.13 376.96 L 456.75 392.42 A 145.00 70.00 0 0 1 436.59 395.73 L 427.81 379.48 A 110.20 53.20 0 0 0 443.13 376.96 Z" fill="#dbeafe" stroke="#94a3b8" stroke-width="0.75"/>
  <text x="441.2" y="386.3" text-anchor="middle" font-size="7" fill="#0c4a6e" pointer-events="none">143</text>
  <path id="section-144" data-section="144" d="M 426.06 379.69 L 434.29 396.01 A 145.00 70.00 0 0 1 413.28 397.71 L 410.09 380.98 A 110.20 53.20 0 0 0 426.06 379.69 Z" fill="#dbeafe" stroke="#94a3b8" stroke-width="0.75"/>
  <text x="421.0" y="388.8" text-anchor="middle" font-size="7" fill="#0c4a6e" pointer-events="none">144</text>
  <path id="section-145" data-section="145" d="M 408.30 381.05 L 410.92 397.80 A 145.00 70.00 0 0 1 389.62 397.82 L 392.11 381.06 A 110.20 53.20 0 0 0 408.30 381.05 Z" fill="#dbeafe" stroke="#94a3b8" stroke-width="0.75"/>
  <text x="400.2" y="389.6" text-anchor="middle" font-size="7" fill="#0c4a6e" pointer-events="none">145</text>
  <path id="section-146" data-section="146" d="M 390.32 380.99 L 387.26 397.73 A 145.00 70.00 0 0 1 366.24 396.08 L 374.34 379.74 A 110.20 53.20 0 0 0 390.32 380.99 Z" fill="#dbeafe" stroke="#94a3b8" stroke-width="0.75"/>
  <text x="379.5" y="388.8" text-anchor="middle" font-size="7" fill="#0c4a6e" pointer-events="none">146</text>
  <path id="section-C138" data-section="C138" d="M 541.92 324.57 L 562.20 324.08 A 162.40 78.40 0 0 1 561.23 337.39 L 541.08 336.21 A 142.10 68.60 0 0 0 541.92 324.57 Z" fill="#dbeafe" stroke="#94a3b8" stroke-width="0.75"/>
  <text x="552.2" y="330.6" text-anchor="middle" font-size="7" fill="#0c4a6e" pointer-events="none">C138</text>
</svg>
