<?xml version="1.0" encoding="UTF-8"?>
<!-- SoFi Stadium — traced from venue chart (docs/venues/SOFI.md). Regenerate: node scripts/generate-sofi-svg.mjs -->
<svg xmlns="http://www.w3.org/2000/svg" viewBox="0 0 800 640" role="img" aria-label="SoFi Stadium seating chart">
  <rect width="800" height="640" fill="#f1f5f9" rx="12"/>
  <rect x="215" y="152" width="370" height="316" fill="#16a34a" rx="4"/>
  <circle cx="400" cy="310" r="40" fill="none" stroke="white" stroke-width="1.5" opacity="0.9"/>
  <line x1="400" y1="152" x2="400" y2="468" stroke="white" stroke-width="1.5" opacity="0.9"/>
  <path id="section-504" data-section="504" data-zone="cat-3" d="M 517.51 170.09 L 553.58 127.13 A 417.20 196.68 0 0 1 618.88 142.56 L 567.47 181.89 A 319.20 150.48 0 0 0 517.51 170.09 Z" fill="#dbeafe" stroke="#94a3b8" stroke-width="0.75"/>
  <text x="565.0" y="154.8" text-anchor="middle" font-size="7" fill="#0c4a6e" pointer-events="none">504</text>
  <path id="section-505" data-section="505" data-zone="cat-3" d="M 572.73 183.45 L 625.76 144.60 A 417.20 196.68 0 0 1 683.48 165.70 L 616.89 199.60 A 319.20 150.48 0 0 0 572.73 183.45 Z" fill="#dbeafe" stroke="#94a3b8" stroke-width="0.75"/>
  <text x="625.6" y="172.8" text-anchor="middle" font-size="7" fill="#0c4a6e" pointer-events="none">505</text>
  <path id="section-506" data-section="506" data-zone="cat-3" d="M 621.41 201.61 L 689.39 168.33 A 417.20 196.68 0 0 1 737.37 194.29 L 658.12 221.47 A 319.20 150.48 0 0 0 621.41 201.61 Z" fill="#dbeafe" stroke="#94a3b8" stroke-width="0.75"/>
  <text x="677.6" y="196.0" text-anchor="middle" font-size="7" fill="#0c4a6e" pointer-events="none">506</text>
  <path id="section-507" data-section="507" data-zone="cat-3" d="M 661.73 223.86 L 742.08 197.41 A 417.20 196.68 0 0 1 778.49 227.27 L 689.58 246.70 A 319.20 150.48 0 0 0 661.73 223.86 Z" fill="#dbeafe" stroke="#94a3b8" stroke-width="0.75"/>
  <text x="719.2" y="223.5" text-anchor="middle" font-size="7" fill="#0c4a6e" pointer-events="none">507</text>
  <path id="section-508" data-section="508" data-zone="cat-3" d="M 692.14 249.37 L 781.84 230.76 A 417.20 196.68 0 0 1 805.30 263.37 L 710.10 274.32 A 319.20 150.48 0 0 0 692.14 249.37 Z" fill="#dbeafe" stroke="#94a3b8" stroke-width="0.75"/>
  <text x="748.7" y="254.2" text-anchor="middle" font-size="7" fill="#0c4a6e" pointer-events="none">508</text>
  <path id="section-509" data-section="509" data-zone="cat-3" d="M 711.51 277.17 L 807.15 267.10 A 417.20 196.68 0 0 1 816.78 301.23 L 718.88 303.29 A 319.20 150.48 0 0 0 711.51 277.17 Z" fill="#dbeafe" stroke="#94a3b8" stroke-width="0.75"/>
  <text x="765.0" y="287.1" text-anchor="middle" font-size="7" fill="#0c4a6e" pointer-events="none">509</text>
  <path id="section-510" data-section="510" data-zone="cat-3" d="M 719.10 306.22 L 817.07 305.06 A 417.20 196.68 0 0 1 812.50 339.42 L 715.61 332.51 A 319.20 150.48 0 0 0 719.10 306.22 Z" fill="#dbeafe" stroke="#94a3b8" stroke-width="0.75"/>
  <text x="767.5" y="320.8" text-anchor="middle" font-size="7" fill="#0c4a6e" pointer-events="none">510</text>
  <path id="section-511" data-section="511" data-zone="cat-3" d="M 714.62 335.41 L 811.21 343.21 A 417.20 196.68 0 0 1 792.62 376.51 L 700.40 360.88 A 319.20 150.48 0 0 0 714.62 335.41 Z" fill="#dbeafe" stroke="#94a3b8" stroke-width="0.75"/>
  <text x="756.1" y="354.2" text-anchor="middle" font-size="7" fill="#0c4a6e" pointer-events="none">511</text>
  <path id="section-512" data-section="512" data-zone="cat-3" d="M 698.24 363.63 L 789.80 380.10 A 417.20 196.68 0 0 1 757.89 411.07 L 673.83 387.33 A 319.20 150.48 0 0 0 698.24 363.63 Z" fill="#dbeafe" stroke="#94a3b8" stroke-width="0.75"/>
  <text x="731.2" y="385.8" text-anchor="middle" font-size="7" fill="#0c4a6e" pointer-events="none">512</text>
  <path id="section-513" data-section="513" data-zone="cat-3" d="M 670.58 389.83 L 753.65 414.34 A 417.20 196.68 0 0 1 709.63 441.82 L 636.90 410.85 A 319.20 150.48 0 0 0 670.58 389.83 Z" fill="#dbeafe" stroke="#94a3b8" stroke-width="0.75"/>
  <text x="693.8" y="414.6" text-anchor="middle" font-size="7" fill="#0c4a6e" pointer-events="none">513</text>
  <path id="section-514" data-section="514" data-zone="cat-3" d="M 632.69 413.01 L 704.13 444.64 A 417.20 196.68 0 0 1 671.75 459.24 L 607.91 424.18 A 319.20 150.48 0 0 0 632.69 413.01 Z" fill="#dbeafe" stroke="#94a3b8" stroke-width="0.75"/>
  <text x="654.5" y="435.4" text-anchor="middle" font-size="7" fill="#0c4a6e" pointer-events="none">514</text>
  <path id="section-515" data-section="515" data-zone="cat-3" d="M 605.01 425.34 L 667.95 460.75 A 417.20 196.68 0 0 1 632.11 473.43 L 577.59 435.04 A 319.20 150.48 0 0 0 605.01 425.34 Z" fill="#dbeafe" stroke="#94a3b8" stroke-width="0.75"/>
  <text x="621.0" y="448.8" text-anchor="middle" font-size="7" fill="#0c4a6e" pointer-events="none">515</text>
  <path id="section-516" data-section="516" data-zone="cat-3" d="M 574.41 436.03 L 627.96 474.73 A 417.20 196.68 0 0 1 589.17 485.30 L 544.74 444.12 A 319.20 150.48 0 0 0 574.41 436.03 Z" fill="#dbeafe" stroke="#94a3b8" stroke-width="0.75"/>
  <text x="584.3" y="460.3" text-anchor="middle" font-size="7" fill="#0c4a6e" pointer-events="none">516</text>
  <path id="section-517" data-section="517" data-zone="cat-3" d="M 541.33 444.93 L 584.72 486.35 A 417.20 196.68 0 0 1 543.54 494.67 L 509.82 451.29 A 319.20 150.48 0 0 0 541.33 444.93 Z" fill="#dbeafe" stroke="#94a3b8" stroke-width="0.75"/>
  <text x="545.1" y="469.5" text-anchor="middle" font-size="7" fill="#0c4a6e" pointer-events="none">517</text>
  <path id="section-518" data-section="518" data-zone="cat-3" d="M 506.24 451.90 L 538.85 495.47 A 417.20 196.68 0 0 1 495.86 501.42 L 473.35 456.45 A 319.20 150.48 0 0 0 506.24 451.90 Z" fill="#dbeafe" stroke="#94a3b8" stroke-width="0.75"/>
  <text x="503.7" y="476.6" text-anchor="middle" font-size="7" fill="#0c4a6e" pointer-events="none">518</text>
  <path id="section-519" data-section="519" data-zone="cat-3" d="M 469.63 456.86 L 491.01 501.94 A 417.20 196.68 0 0 1 446.82 505.44 L 435.82 459.53 A 319.20 150.48 0 0 0 469.63 456.86 Z" fill="#dbeafe" stroke="#94a3b8" stroke-width="0.75"/>
  <text x="460.9" y="481.2" text-anchor="middle" font-size="7" fill="#0c4a6e" pointer-events="none">519</text>
  <path id="section-520" data-section="520" data-zone="cat-3" d="M 432.04 459.72 L 441.87 505.69 A 417.20 196.68 0 0 1 397.12 506.68 L 397.79 460.48 A 319.20 150.48 0 0 0 432.04 459.72 Z" fill="#dbeafe" stroke="#94a3b8" stroke-width="0.75"/>
  <text x="417.2" y="483.4" text-anchor="middle" font-size="7" fill="#0c4a6e" pointer-events="none">520</text>
  <path id="section-521" data-section="521" data-zone="cat-3" d="M 393.98 460.45 L 392.14 506.65 A 417.20 196.68 0 0 1 347.45 505.11 L 359.79 459.28 A 319.20 150.48 0 0 0 393.98 460.45 Z" fill="#dbeafe" stroke="#94a3b8" stroke-width="0.75"/>
  <text x="373.3" y="483.1" text-anchor="middle" font-size="7" fill="#0c4a6e" pointer-events="none">521</text>
  <path id="section-522" data-section="522" data-zone="cat-3" d="M 356.02 459.04 L 342.51 504.80 A 417.20 196.68 0 0 1 298.53 500.77 L 322.37 455.96 A 319.20 150.48 0 0 0 356.02 459.04 Z" fill="#dbeafe" stroke="#94a3b8" stroke-width="0.75"/>
  <text x="329.8" y="480.4" text-anchor="middle" font-size="7" fill="#0c4a6e" pointer-events="none">522</text>
  <path id="section-523" data-section="523" data-zone="cat-3" d="M 318.68 455.51 L 293.71 500.19 A 417.20 196.68 0 0 1 251.06 493.72 L 286.05 450.56 A 319.20 150.48 0 0 0 318.68 455.51 Z" fill="#dbeafe" stroke="#94a3b8" stroke-width="0.75"/>
  <text x="287.2" y="475.2" text-anchor="middle" font-size="7" fill="#0c4a6e" pointer-events="none">523</text>
  <path id="section-524" data-section="524" data-zone="cat-3" d="M 282.49 449.91 L 246.42 492.87 A 417.20 196.68 0 0 1 207.80 484.56 L 252.95 443.56 A 319.20 150.48 0 0 0 282.49 449.91 Z" fill="#dbeafe" stroke="#94a3b8" stroke-width="0.75"/>
  <text x="247.2" y="467.9" text-anchor="middle" font-size="7" fill="#0c4a6e" pointer-events="none">524</text>
  <path id="section-525" data-section="525" data-zone="cat-3" d="M 249.75 442.77 L 203.62 483.53 A 417.20 196.68 0 0 1 167.24 473.22 L 221.91 434.88 A 319.20 150.48 0 0 0 249.75 442.77 Z" fill="#dbeafe" stroke="#94a3b8" stroke-width="0.75"/>
  <text x="210.4" y="458.8" text-anchor="middle" font-size="7" fill="#0c4a6e" pointer-events="none">525</text>
  <path id="section-536" data-section="536" data-zone="cat-3" d="M 218.93 433.93 L 163.34 471.97 A 417.20 196.68 0 0 1 129.65 459.80 L 193.15 424.61 A 319.20 150.48 0 0 0 218.93 433.93 Z" fill="#dbeafe" stroke="#94a3b8" stroke-width="0.75"/>
  <text x="176.0" y="447.8" text-anchor="middle" font-size="7" fill="#0c4a6e" pointer-events="none">536</text>
  <path id="section-537" data-section="537" data-zone="cat-3" d="M 190.42 423.50 L 126.07 458.35 A 417.20 196.68 0 0 1 95.52 444.46 L 167.04 412.87 A 319.20 150.48 0 0 0 190.42 423.50 Z" fill="#dbeafe" stroke="#94a3b8" stroke-width="0.75"/>
  <text x="144.4" y="435.0" text-anchor="middle" font-size="7" fill="#0c4a6e" pointer-events="none">537</text>
  <path id="section-538" data-section="538" data-zone="cat-3" d="M 164.59 411.62 L 92.31 442.82 A 417.20 196.68 0 0 1 65.27 427.40 L 143.90 399.82 A 319.20 150.48 0 0 0 164.59 411.62 Z" fill="#dbeafe" stroke="#94a3b8" stroke-width="0.75"/>
  <text x="116.1" y="420.6" text-anchor="middle" font-size="7" fill="#0c4a6e" pointer-events="none">538</text>
  <path id="section-539" data-section="539" data-zone="cat-3" d="M 141.76 398.45 L 62.48 425.61 A 417.20 196.68 0 0 1 39.31 408.84 L 124.03 385.62 A 319.20 150.48 0 0 0 141.76 398.45 Z" fill="#dbeafe" stroke="#94a3b8" stroke-width="0.75"/>
  <text x="91.5" y="404.8" text-anchor="middle" font-size="7" fill="#0c4a6e" pointer-events="none">539</text>
  <path id="section-540" data-section="540" data-zone="cat-3" d="M 122.24 384.15 L 36.96 406.91 A 417.20 196.68 0 0 1 17.95 389.02 L 107.69 370.46 A 319.20 150.48 0 0 0 122.24 384.15 Z" fill="#dbeafe" stroke="#94a3b8" stroke-width="0.75"/>
  <text x="70.8" y="387.7" text-anchor="middle" font-size="7" fill="#0c4a6e" pointer-events="none">540</text>
  <path id="section-541" data-section="541" data-zone="cat-3" d="M 106.26 368.89 L 16.08 386.98 A 417.20 196.68 0 0 1 1.48 368.19 L 95.09 354.52 A 319.20 150.48 0 0 0 106.26 368.89 Z" fill="#dbeafe" stroke="#94a3b8" stroke-width="0.75"/>
  <text x="54.3" y="369.7" text-anchor="middle" font-size="7" fill="#0c4a6e" pointer-events="none">541</text>
  <path id="section-542" data-section="542" data-zone="cat-3" d="M 94.04 352.89 L 0.10 366.06 A 417.20 196.68 0 0 1 -9.91 346.61 L 86.38 338.01 A 319.20 150.48 0 0 0 94.04 352.89 Z" fill="#dbeafe" stroke="#94a3b8" stroke-width="0.75"/>
  <text x="42.2" y="350.9" text-anchor="middle" font-size="7" fill="#0c4a6e" pointer-events="none">542</text>
  <path id="section-543" data-section="543" data-zone="cat-4" d="M 85.73 336.34 L -10.76 344.42 A 417.20 196.68 0 0 1 -16.05 324.57 L 81.68 321.15 A 319.20 150.48 0 0 0 85.73 336.34 Z" fill="#dbeafe" stroke="#94a3b8" stroke-width="0.75"/>
  <text x="34.7" y="331.6" text-anchor="middle" font-size="7" fill="#0c4a6e" pointer-events="none">543</text>
  <path id="section-544" data-section="544" data-zone="cat-4" d="M 81.43 300.55 L -16.38 297.65 A 417.20 196.68 0 0 1 -5.98 264.69 L 89.39 275.33 A 319.20 150.48 0 0 0 81.43 300.55 Z" fill="#dbeafe" stroke="#94a3b8" stroke-width="0.75"/>
  <text x="35.8" y="284.5" text-anchor="middle" font-size="7" fill="#0c4a6e" pointer-events="none">544</text>
  <path id="section-545" data-section="545" data-zone="cat-4" d="M 90.83 272.58 L -4.09 261.09 A 417.20 196.68 0 0 1 19.23 229.63 L 108.67 248.51 A 319.20 150.48 0 0 0 90.83 272.58 Z" fill="#dbeafe" stroke="#94a3b8" stroke-width="0.75"/>
  <text x="52.4" y="252.7" text-anchor="middle" font-size="7" fill="#0c4a6e" pointer-events="none">545</text>
  <path id="section-546" data-section="546" data-zone="cat-4" d="M 111.18 245.93 L 22.51 226.26 A 417.20 196.68 0 0 1 57.92 197.41 L 138.27 223.86 A 319.20 150.48 0 0 0 111.18 245.93 Z" fill="#dbeafe" stroke="#94a3b8" stroke-width="0.75"/>
  <text x="81.3" y="223.1" text-anchor="middle" font-size="7" fill="#0c4a6e" pointer-events="none">546</text>
  <path id="section-547" data-section="547" data-zone="cat-4" d="M 141.76 221.55 L 62.48 194.39 A 417.20 196.68 0 0 1 108.73 169.19 L 177.15 202.27 A 319.20 150.48 0 0 0 141.76 221.55 Z" fill="#dbeafe" stroke="#94a3b8" stroke-width="0.75"/>
  <text x="121.5" y="196.4" text-anchor="middle" font-size="7" fill="#0c4a6e" pointer-events="none">547</text>
  <path id="section-548" data-section="548" data-zone="cat-4" d="M 181.49 200.30 L 114.41 166.63 A 417.20 196.68 0 0 1 169.85 145.95 L 223.91 184.49 A 319.20 150.48 0 0 0 181.49 200.30 Z" fill="#dbeafe" stroke="#94a3b8" stroke-width="0.75"/>
  <text x="171.6" y="173.9" text-anchor="middle" font-size="7" fill="#0c4a6e" pointer-events="none">548</text>
  <path id="section-549" data-section="549" data-zone="cat-4" d="M 228.96 182.95 L 176.45 143.94 A 417.20 196.68 0 0 1 239.13 128.53 L 276.92 171.16 A 319.20 150.48 0 0 0 228.96 182.95 Z" fill="#dbeafe" stroke="#94a3b8" stroke-width="0.75"/>
  <text x="229.8" y="156.1" text-anchor="middle" font-size="7" fill="#0c4a6e" pointer-events="none">549</text>
  <path id="section-550" data-section="550" data-zone="cat-4" d="M 282.49 170.09 L 246.42 127.13 A 417.20 196.68 0 0 1 314.11 117.53 L 334.29 162.74 A 319.20 150.48 0 0 0 282.49 170.09 Z" fill="#dbeafe" stroke="#94a3b8" stroke-width="0.75"/>
  <text x="293.9" y="143.8" text-anchor="middle" font-size="7" fill="#0c4a6e" pointer-events="none">550</text>
  <path id="section-551" data-section="551" data-zone="cat-4" d="M 340.19 162.19 L 321.82 116.80 A 417.20 196.68 0 0 1 392.14 113.35 L 393.98 159.55 A 319.20 150.48 0 0 0 340.19 162.19 Z" fill="#dbeafe" stroke="#94a3b8" stroke-width="0.75"/>
  <text x="361.9" y="137.4" text-anchor="middle" font-size="7" fill="#0c4a6e" pointer-events="none">551</text>
  <path id="section-552" data-section="552" data-zone="cat-4" d="M 400.00 159.52 L 400.00 113.32 A 417.20 196.68 0 0 1 470.44 116.14 L 453.89 161.68 A 319.20 150.48 0 0 0 400.00 159.52 Z" fill="#dbeafe" stroke="#94a3b8" stroke-width="0.75"/>
  <text x="431.2" y="137.0" text-anchor="middle" font-size="7" fill="#0c4a6e" pointer-events="none">552</text>
  <path id="section-553" data-section="553" data-zone="cat-4" d="M 459.81 162.19 L 478.18 116.80 A 417.20 196.68 0 0 1 546.24 125.80 L 511.89 169.07 A 319.20 150.48 0 0 0 459.81 162.19 Z" fill="#dbeafe" stroke="#94a3b8" stroke-width="0.75"/>
  <text x="499.4" y="142.9" text-anchor="middle" font-size="7" fill="#0c4a6e" pointer-events="none">553</text>
  <path id="section-400" data-section="400" data-zone="cat-3" d="M 486.58 206.91 L 514.41 173.77 A 310.80 146.52 0 0 1 547.33 180.99 L 511.49 212.37 A 235.20 110.88 0 0 0 486.58 206.91 Z" fill="#dbeafe" stroke="#94a3b8" stroke-width="0.75"/>
  <text x="515.2" y="193.3" text-anchor="middle" font-size="7" fill="#0c4a6e" pointer-events="none">400</text>
  <path id="section-401" data-section="401" data-zone="cat-3" d="M 514.17 213.06 L 550.87 181.90 A 310.80 146.52 0 0 1 581.52 191.07 L 537.37 220.00 A 235.20 110.88 0 0 0 514.17 213.06 Z" fill="#dbeafe" stroke="#94a3b8" stroke-width="0.75"/>
  <text x="546.2" y="201.3" text-anchor="middle" font-size="7" fill="#0c4a6e" pointer-events="none">401</text>
  <path id="section-402" data-section="402" data-zone="cat-3" d="M 539.84 220.85 L 584.78 192.19 A 310.80 146.52 0 0 1 612.66 203.15 L 560.93 229.14 A 235.20 110.88 0 0 0 539.84 220.85 Z" fill="#dbeafe" stroke="#94a3b8" stroke-width="0.75"/>
  <text x="574.9" y="211.2" text-anchor="middle" font-size="7" fill="#0c4a6e" pointer-events="none">402</text>
  <path id="section-403" data-section="403" data-zone="cat-3" d="M 563.15 230.13 L 615.59 204.46 A 310.80 146.52 0 0 1 640.22 217.03 L 581.79 239.65 A 235.20 110.88 0 0 0 563.15 230.13 Z" fill="#dbeafe" stroke="#94a3b8" stroke-width="0.75"/>
  <text x="600.5" y="222.7" text-anchor="middle" font-size="7" fill="#0c4a6e" pointer-events="none">403</text>
  <path id="section-404" data-section="404" data-zone="cat-3" d="M 583.71 240.76 L 642.76 218.51 A 310.80 146.52 0 0 1 663.73 232.48 L 599.58 251.33 A 235.20 110.88 0 0 0 583.71 240.76 Z" fill="#dbeafe" stroke="#94a3b8" stroke-width="0.75"/>
  <text x="622.8" y="235.6" text-anchor="middle" font-size="7" fill="#0c4a6e" pointer-events="none">404</text>
  <path id="section-405" data-section="405" data-zone="cat-3" d="M 601.18 252.56 L 665.85 234.10 A 310.80 146.52 0 0 1 682.81 249.23 L 614.02 264.01 A 235.20 110.88 0 0 0 601.18 252.56 Z" fill="#dbeafe" stroke="#94a3b8" stroke-width="0.75"/>
  <text x="641.4" y="249.9" text-anchor="middle" font-size="7" fill="#0c4a6e" pointer-events="none">405</text>
  <path id="section-406" data-section="406" data-zone="cat-3" d="M 615.26 265.33 L 684.46 250.97 A 310.80 146.52 0 0 1 697.12 267.01 L 624.85 277.46 A 235.20 110.88 0 0 0 615.26 265.33 Z" fill="#dbeafe" stroke="#94a3b8" stroke-width="0.75"/>
  <text x="655.9" y="265.1" text-anchor="middle" font-size="7" fill="#0c4a6e" pointer-events="none">406</text>
  <path id="section-407" data-section="407" data-zone="cat-3" d="M 625.72 278.84 L 698.28 268.83 A 310.80 146.52 0 0 1 706.43 285.50 L 631.89 291.46 A 235.20 110.88 0 0 0 625.72 278.84 Z" fill="#dbeafe" stroke="#94a3b8" stroke-width="0.75"/>
  <text x="666.0" y="281.1" text-anchor="middle" font-size="7" fill="#0c4a6e" pointer-events="none">407</text>
  <path id="section-408" data-section="408" data-zone="cat-3" d="M 632.38 292.88 L 707.07 287.38 A 310.80 146.52 0 0 1 710.57 304.42 L 635.03 305.77 A 235.20 110.88 0 0 0 632.38 292.88 Z" fill="#dbeafe" stroke="#94a3b8" stroke-width="0.75"/>
  <text x="671.7" y="297.6" text-anchor="middle" font-size="7" fill="#0c4a6e" pointer-events="none">408</text>
  <path id="section-409" data-section="409" data-zone="cat-3" d="M 635.13 307.21 L 710.70 306.32 A 310.80 146.52 0 0 1 709.49 323.42 L 634.21 320.16 A 235.20 110.88 0 0 0 635.13 307.21 Z" fill="#dbeafe" stroke="#94a3b8" stroke-width="0.75"/>
  <text x="672.8" y="314.3" text-anchor="middle" font-size="7" fill="#0c4a6e" pointer-events="none">409</text>
  <path id="section-410" data-section="410" data-zone="cat-3" d="M 633.91 321.59 L 709.10 325.32 A 310.80 146.52 0 0 1 703.20 342.20 L 629.45 334.37 A 235.20 110.88 0 0 0 633.91 321.59 Z" fill="#dbeafe" stroke="#94a3b8" stroke-width="0.75"/>
  <text x="669.4" y="330.9" text-anchor="middle" font-size="7" fill="#0c4a6e" pointer-events="none">410</text>
  <path id="section-411" data-section="411" data-zone="cat-3" d="M 628.76 335.77 L 702.29 344.06 A 310.80 146.52 0 0 1 691.80 360.44 L 620.82 348.17 A 235.20 110.88 0 0 0 628.76 335.77 Z" fill="#dbeafe" stroke="#94a3b8" stroke-width="0.75"/>
  <text x="661.4" y="347.2" text-anchor="middle" font-size="7" fill="#0c4a6e" pointer-events="none">411</text>
  <path id="section-412" data-section="412" data-zone="cat-2" d="M 619.75 349.52 L 690.39 362.22 A 310.80 146.52 0 0 1 675.49 377.83 L 608.48 361.33 A 235.20 110.88 0 0 0 619.75 349.52 Z" fill="#dbeafe" stroke="#94a3b8" stroke-width="0.75"/>
  <text x="649.0" y="362.8" text-anchor="middle" font-size="7" fill="#0c4a6e" pointer-events="none">412</text>
  <path id="section-413" data-section="413" data-zone="cat-2" d="M 607.05 362.60 L 673.60 379.51 A 310.80 146.52 0 0 1 654.54 394.07 L 592.63 373.62 A 235.20 110.88 0 0 0 607.05 362.60 Z" fill="#dbeafe" stroke="#94a3b8" stroke-width="0.75"/>
  <text x="632.4" y="377.6" text-anchor="middle" font-size="7" fill="#0c4a6e" pointer-events="none">413</text>
  <path id="section-414" data-section="414" data-zone="cat-2" d="M 590.86 374.80 L 652.21 395.63 A 310.80 146.52 0 0 1 629.31 408.90 L 573.53 384.85 A 235.20 110.88 0 0 0 590.86 374.80 Z" fill="#dbeafe" stroke="#94a3b8" stroke-width="0.75"/>
  <text x="611.8" y="391.2" text-anchor="middle" font-size="7" fill="#0c4a6e" pointer-events="none">414</text>
  <path id="section-415" data-section="415" data-zone="cat-2" d="M 571.45 385.90 L 626.56 410.30 A 310.80 146.52 0 0 1 610.76 417.69 L 559.49 391.49 A 235.20 110.88 0 0 0 571.45 385.90 Z" fill="#dbeafe" stroke="#94a3b8" stroke-width="0.75"/>
  <text x="592.2" y="401.4" text-anchor="middle" font-size="7" fill="#0c4a6e" pointer-events="none">415</text>
  <path id="section-416" data-section="416" data-zone="cat-2" d="M 558.11 392.09 L 608.93 418.47 A 310.80 146.52 0 0 1 591.93 425.24 L 545.24 397.21 A 235.20 110.88 0 0 0 558.11 392.09 Z" fill="#dbeafe" stroke="#94a3b8" stroke-width="0.75"/>
  <text x="576.2" y="408.3" text-anchor="middle" font-size="7" fill="#0c4a6e" pointer-events="none">416</text>
  <path id="section-417" data-section="417" data-zone="cat-2" d="M 543.77 397.75 L 589.98 425.96 A 310.80 146.52 0 0 1 571.89 432.07 L 530.08 402.38 A 235.20 110.88 0 0 0 543.77 397.75 Z" fill="#dbeafe" stroke="#94a3b8" stroke-width="0.75"/>
  <text x="559.0" y="414.6" text-anchor="middle" font-size="7" fill="#0c4a6e" pointer-events="none">417</text>
  <path id="section-418" data-section="418" data-zone="cat-2" d="M 528.51 402.87 L 569.82 432.71 A 310.80 146.52 0 0 1 550.75 438.13 L 514.08 406.96 A 235.20 110.88 0 0 0 528.51 402.87 Z" fill="#dbeafe" stroke="#94a3b8" stroke-width="0.75"/>
  <text x="540.9" y="420.2" text-anchor="middle" font-size="7" fill="#0c4a6e" pointer-events="none">418</text>
  <path id="section-419" data-section="419" data-zone="cat-2" d="M 512.44 407.39 L 548.59 438.69 A 310.80 146.52 0 0 1 528.67 443.37 L 497.37 410.93 A 235.20 110.88 0 0 0 512.44 407.39 Z" fill="#dbeafe" stroke="#94a3b8" stroke-width="0.75"/>
  <text x="521.8" y="425.2" text-anchor="middle" font-size="7" fill="#0c4a6e" pointer-events="none">419</text>
  <path id="section-420" data-section="420" data-zone="cat-2" d="M 495.66 411.29 L 526.41 443.85 A 310.80 146.52 0 0 1 505.77 447.77 L 480.04 414.26 A 235.20 110.88 0 0 0 495.66 411.29 Z" fill="#dbeafe" stroke="#94a3b8" stroke-width="0.75"/>
  <text x="502.0" y="429.4" text-anchor="middle" font-size="7" fill="#0c4a6e" pointer-events="none">420</text>
  <path id="section-421" data-section="421" data-zone="cat-2" d="M 478.28 414.56 L 503.44 448.17 A 310.80 146.52 0 0 1 482.20 451.30 L 462.21 416.93 A 235.20 110.88 0 0 0 478.28 414.56 Z" fill="#dbeafe" stroke="#94a3b8" stroke-width="0.75"/>
  <text x="481.6" y="432.8" text-anchor="middle" font-size="7" fill="#0c4a6e" pointer-events="none">421</text>
  <path id="section-422" data-section="422" data-zone="cat-2" d="M 460.40 417.16 L 479.81 451.61 A 310.80 146.52 0 0 1 458.11 453.94 L 443.98 418.92 A 235.20 110.88 0 0 0 460.40 417.16 Z" fill="#dbeafe" stroke="#94a3b8" stroke-width="0.75"/>
  <text x="460.6" y="435.5" text-anchor="middle" font-size="7" fill="#0c4a6e" pointer-events="none">422</text>
  <path id="section-423" data-section="423" data-zone="cat-3" d="M 442.14 419.09 L 455.68 454.15 A 310.80 146.52 0 0 1 433.65 455.66 L 425.47 420.23 A 235.20 110.88 0 0 0 442.14 419.09 Z" fill="#dbeafe" stroke="#94a3b8" stroke-width="0.75"/>
  <text x="439.3" y="437.4" text-anchor="middle" font-size="7" fill="#0c4a6e" pointer-events="none">423</text>
  <path id="section-424" data-section="424" data-zone="cat-3" d="M 423.61 420.32 L 431.19 455.78 A 310.80 146.52 0 0 1 408.98 456.46 L 406.80 420.83 A 235.20 110.88 0 0 0 423.61 420.32 Z" fill="#dbeafe" stroke="#94a3b8" stroke-width="0.75"/>
  <text x="417.7" y="438.4" text-anchor="middle" font-size="7" fill="#0c4a6e" pointer-events="none">424</text>
  <path id="section-425" data-section="425" data-zone="cat-3" d="M 404.93 420.86 L 406.51 456.49 A 310.80 146.52 0 0 1 384.25 456.33 L 388.08 420.74 A 235.20 110.88 0 0 0 404.93 420.86 Z" fill="#dbeafe" stroke="#94a3b8" stroke-width="0.75"/>
  <text x="395.9" y="438.7" text-anchor="middle" font-size="7" fill="#0c4a6e" pointer-events="none">425</text>
  <path id="section-426" data-section="426" data-zone="cat-3" d="M 386.22 420.69 L 381.78 456.27 A 310.80 146.52 0 0 1 359.63 455.28 L 369.45 419.94 A 235.20 110.88 0 0 0 386.22 420.69 Z" fill="#dbeafe" stroke="#94a3b8" stroke-width="0.75"/>
  <text x="374.3" y="438.1" text-anchor="middle" font-size="7" fill="#0c4a6e" pointer-events="none">426</text>
  <path id="section-427" data-section="427" data-zone="cat-3" d="M 367.59 419.82 L 357.17 455.12 A 310.80 146.52 0 0 1 335.25 453.31 L 351.00 418.45 A 235.20 110.88 0 0 0 367.59 419.82 Z" fill="#dbeafe" stroke="#94a3b8" stroke-width="0.75"/>
  <text x="352.7" y="436.8" text-anchor="middle" font-size="7" fill="#0c4a6e" pointer-events="none">427</text>
  <path id="section-428" data-section="428" data-zone="cat-3" d="M 349.17 418.26 L 332.84 453.06 A 310.80 146.52 0 0 1 311.29 450.43 L 332.87 416.27 A 235.20 110.88 0 0 0 349.17 418.26 Z" fill="#dbeafe" stroke="#94a3b8" stroke-width="0.75"/>
  <text x="331.5" y="434.6" text-anchor="middle" font-size="7" fill="#0c4a6e" pointer-events="none">428</text>
  <path id="section-429" data-section="429" data-zone="cat-3" d="M 331.08 416.01 L 308.92 450.09 A 310.80 146.52 0 0 1 287.89 446.66 L 315.16 413.42 A 235.20 110.88 0 0 0 331.08 416.01 Z" fill="#dbeafe" stroke="#94a3b8" stroke-width="0.75"/>
  <text x="310.7" y="431.6" text-anchor="middle" font-size="7" fill="#0c4a6e" pointer-events="none">429</text>
  <path id="section-430" data-section="430" data-zone="cat-3" d="M 313.42 413.09 L 285.59 446.23 A 310.80 146.52 0 0 1 264.90 441.95 L 297.76 409.86 A 235.20 110.88 0 0 0 313.42 413.09 Z" fill="#dbeafe" stroke="#94a3b8" stroke-width="0.75"/>
  <text x="290.3" y="427.9" text-anchor="middle" font-size="7" fill="#0c4a6e" pointer-events="none">430</text>
  <path id="section-431" data-section="431" data-zone="cat-3" d="M 296.05 409.46 L 262.64 441.43 A 310.80 146.52 0 0 1 242.75 436.38 L 281.00 405.64 A 235.20 110.88 0 0 0 296.05 409.46 Z" fill="#dbeafe" stroke="#94a3b8" stroke-width="0.75"/>
  <text x="270.5" y="423.3" text-anchor="middle" font-size="7" fill="#0c4a6e" pointer-events="none">431</text>
  <path id="section-432" data-section="432" data-zone="cat-3" d="M 279.37 405.18 L 240.59 435.78 A 310.80 146.52 0 0 1 221.63 429.99 L 265.02 400.80 A 235.20 110.88 0 0 0 279.37 405.18 Z" fill="#dbeafe" stroke="#94a3b8" stroke-width="0.75"/>
  <text x="251.6" y="418.0" text-anchor="middle" font-size="7" fill="#0c4a6e" pointer-events="none">432</text>
  <path id="section-433" data-section="433" data-zone="cat-3" d="M 263.47 400.29 L 219.58 429.31 A 310.80 146.52 0 0 1 201.67 422.81 L 249.92 395.37 A 235.20 110.88 0 0 0 263.47 400.29 Z" fill="#dbeafe" stroke="#94a3b8" stroke-width="0.75"/>
  <text x="233.5" y="412.0" text-anchor="middle" font-size="7" fill="#0c4a6e" pointer-events="none">433</text>
  <path id="section-434" data-section="434" data-zone="cat-3" d="M 248.46 394.80 L 199.75 422.05 A 310.80 146.52 0 0 1 183.01 414.90 L 235.79 389.38 A 235.20 110.88 0 0 0 248.46 394.80 Z" fill="#dbeafe" stroke="#94a3b8" stroke-width="0.75"/>
  <text x="216.6" y="405.3" text-anchor="middle" font-size="7" fill="#0c4a6e" pointer-events="none">434</text>
  <path id="section-436" data-section="436" data-zone="cat-3" d="M 234.44 388.76 L 181.22 414.07 A 310.80 146.52 0 0 1 165.76 406.30 L 222.74 382.88 A 235.20 110.88 0 0 0 234.44 388.76 Z" fill="#dbeafe" stroke="#94a3b8" stroke-width="0.75"/>
  <text x="200.9" y="398.1" text-anchor="middle" font-size="7" fill="#0c4a6e" pointer-events="none">436</text>
  <path id="section-437" data-section="437" data-zone="cat-3" d="M 221.50 382.20 L 164.12 405.41 A 310.80 146.52 0 0 1 150.04 397.08 L 210.84 375.90 A 235.20 110.88 0 0 0 221.50 382.20 Z" fill="#dbeafe" stroke="#94a3b8" stroke-width="0.75"/>
  <text x="186.5" y="390.2" text-anchor="middle" font-size="7" fill="#0c4a6e" pointer-events="none">437</text>
  <path id="section-438" data-section="438" data-zone="cat-3" d="M 209.72 375.17 L 148.56 396.12 A 310.80 146.52 0 0 1 135.95 387.28 L 200.18 368.49 A 235.20 110.88 0 0 0 209.72 375.17 Z" fill="#dbeafe" stroke="#94a3b8" stroke-width="0.75"/>
  <text x="173.5" y="381.8" text-anchor="middle" font-size="7" fill="#0c4a6e" pointer-events="none">438</text>
  <path id="section-439" data-section="439" data-zone="cat-3" d="M 199.18 367.72 L 134.64 386.28 A 310.80 146.52 0 0 1 123.58 376.99 L 190.82 360.69 A 235.20 110.88 0 0 0 199.18 367.72 Z" fill="#dbeafe" stroke="#94a3b8" stroke-width="0.75"/>
  <text x="161.9" y="373.0" text-anchor="middle" font-size="7" fill="#0c4a6e" pointer-events="none">439</text>
  <path id="section-440" data-section="440" data-zone="cat-3" d="M 189.96 359.89 L 122.44 375.93 A 310.80 146.52 0 0 1 113.02 366.25 L 182.82 352.57 A 235.20 110.88 0 0 0 189.96 359.89 Z" fill="#dbeafe" stroke="#94a3b8" stroke-width="0.75"/>
  <text x="151.9" y="363.7" text-anchor="middle" font-size="7" fill="#0c4a6e" pointer-events="none">440</text>
  <path id="section-441" data-section="441" data-zone="cat-3" d="M 182.10 351.74 L 112.06 365.16 A 310.80 146.52 0 0 1 104.33 355.15 L 176.25 344.17 A 235.20 110.88 0 0 0 182.10 351.74 Z" fill="#dbeafe" stroke="#94a3b8" stroke-width="0.75"/>
  <text x="143.5" y="354.1" text-anchor="middle" font-size="7" fill="#0c4a6e" pointer-events="none">441</text>
  <path id="section-442" data-section="442" data-zone="cat-3" d="M 175.67 343.32 L 103.56 354.02 A 310.80 146.52 0 0 1 97.56 343.76 L 171.13 335.55 A 235.20 110.88 0 0 0 175.67 343.32 Z" fill="#dbeafe" stroke="#94a3b8" stroke-width="0.75"/>
  <text x="136.8" y="344.2" text-anchor="middle" font-size="7" fill="#0c4a6e" pointer-events="none">442</text>
  <path id="section-443" data-section="443" data-zone="cat-3" d="M 170.70 334.67 L 96.99 342.60 A 310.80 146.52 0 0 1 92.77 332.14 L 167.50 326.76 A 235.20 110.88 0 0 0 170.70 334.67 Z" fill="#dbeafe" stroke="#94a3b8" stroke-width="0.75"/>
  <text x="131.8" y="334.1" text-anchor="middle" font-size="7" fill="#0c4a6e" pointer-events="none">443</text>
  <path id="section-444" data-section="444" data-zone="cat-3" d="M 167.22 325.87 L 92.40 330.97 A 310.80 146.52 0 0 1 89.98 320.38 L 165.39 317.86 A 235.20 110.88 0 0 0 167.22 325.87 Z" fill="#dbeafe" stroke="#94a3b8" stroke-width="0.75"/>
  <text x="128.6" y="323.8" text-anchor="middle" font-size="7" fill="#0c4a6e" pointer-events="none">444</text>
  <path id="section-445" data-section="445" data-zone="cat-3" d="M 165.26 303.04 L 89.81 300.80 A 310.80 146.52 0 0 1 94.99 281.85 L 169.18 288.70 A 235.20 110.88 0 0 0 165.26 303.04 Z" fill="#dbeafe" stroke="#94a3b8" stroke-width="0.75"/>
  <text x="129.2" y="293.6" text-anchor="middle" font-size="7" fill="#0c4a6e" pointer-events="none">445</text>
  <path id="section-446" data-section="446" data-zone="cat-3" d="M 169.86 287.12 L 95.89 279.77 A 310.80 146.52 0 0 1 106.82 261.37 L 178.13 273.20 A 235.20 110.88 0 0 0 169.86 287.12 Z" fill="#dbeafe" stroke="#94a3b8" stroke-width="0.75"/>
  <text x="137.1" y="275.3" text-anchor="middle" font-size="7" fill="#0c4a6e" pointer-events="none">446</text>
  <path id="section-447" data-section="447" data-zone="cat-3" d="M 179.29 271.69 L 108.35 259.37 A 310.80 146.52 0 0 1 124.80 241.91 L 191.74 258.47 A 235.20 110.88 0 0 0 179.29 271.69 Z" fill="#dbeafe" stroke="#94a3b8" stroke-width="0.75"/>
  <text x="150.5" y="257.7" text-anchor="middle" font-size="7" fill="#0c4a6e" pointer-events="none">447</text>
  <path id="section-448" data-section="448" data-zone="cat-3" d="M 193.35 257.05 L 126.92 240.03 A 310.80 146.52 0 0 1 148.56 223.88 L 209.72 244.83 A 235.20 110.88 0 0 0 193.35 257.05 Z" fill="#dbeafe" stroke="#94a3b8" stroke-width="0.75"/>
  <text x="169.1" y="241.3" text-anchor="middle" font-size="7" fill="#0c4a6e" pointer-events="none">448</text>
  <path id="section-449" data-section="449" data-zone="cat-3" d="M 211.74 243.53 L 151.23 222.17 A 310.80 146.52 0 0 1 177.59 207.65 L 231.69 232.55 A 235.20 110.88 0 0 0 211.74 243.53 Z" fill="#dbeafe" stroke="#94a3b8" stroke-width="0.75"/>
  <text x="192.6" y="226.3" text-anchor="middle" font-size="7" fill="#0c4a6e" pointer-events="none">449</text>
  <path id="section-450" data-section="450" data-zone="cat-3" d="M 234.09 231.41 L 180.76 206.14 A 310.80 146.52 0 0 1 211.29 193.58 L 257.20 221.90 A 235.20 110.88 0 0 0 234.09 231.41 Z" fill="#dbeafe" stroke="#94a3b8" stroke-width="0.75"/>
  <text x="220.5" y="213.1" text-anchor="middle" font-size="7" fill="#0c4a6e" pointer-events="none">450</text>
  <path id="section-451" data-section="451" data-zone="cat-3" d="M 259.92 220.93 L 214.89 192.30 A 310.80 146.52 0 0 1 248.96 181.95 L 285.70 213.09 A 235.20 110.88 0 0 0 259.92 220.93 Z" fill="#dbeafe" stroke="#94a3b8" stroke-width="0.75"/>
  <text x="252.1" y="201.8" text-anchor="middle" font-size="7" fill="#0c4a6e" pointer-events="none">451</text>
  <path id="section-452" data-section="452" data-zone="cat-3" d="M 288.69 212.32 L 252.91 180.93 A 310.80 146.52 0 0 1 289.79 173.00 L 316.60 206.33 A 235.20 110.88 0 0 0 288.69 212.32 Z" fill="#dbeafe" stroke="#94a3b8" stroke-width="0.75"/>
  <text x="286.8" y="192.9" text-anchor="middle" font-size="7" fill="#0c4a6e" pointer-events="none">452</text>
  <path id="section-453" data-section="453" data-zone="cat-3" d="M 319.79 205.77 L 294.01 172.26 A 310.80 146.52 0 0 1 332.93 166.93 L 349.25 201.73 A 235.20 110.88 0 0 0 319.79 205.77 Z" fill="#dbeafe" stroke="#94a3b8" stroke-width="0.75"/>
  <text x="323.8" y="186.4" text-anchor="middle" font-size="7" fill="#0c4a6e" pointer-events="none">453</text>
  <path id="section-454" data-section="454" data-zone="cat-3" d="M 352.58 201.40 L 337.34 166.49 A 310.80 146.52 0 0 1 377.49 163.86 L 382.96 199.41 A 235.20 110.88 0 0 0 352.58 201.40 Z" fill="#dbeafe" stroke="#94a3b8" stroke-width="0.75"/>
  <text x="362.5" y="182.5" text-anchor="middle" font-size="7" fill="#0c4a6e" pointer-events="none">454</text>
  <path id="section-455" data-section="455" data-zone="cat-3" d="M 386.37 199.31 L 381.98 163.73 A 310.80 146.52 0 0 1 422.51 163.86 L 417.04 199.41 A 235.20 110.88 0 0 0 386.37 199.31 Z" fill="#dbeafe" stroke="#94a3b8" stroke-width="0.75"/>
  <text x="402.0" y="181.3" text-anchor="middle" font-size="7" fill="#0c4a6e" pointer-events="none">455</text>
  <path id="section-456" data-section="456" data-zone="cat-3" d="M 420.44 199.54 L 427.00 164.03 A 310.80 146.52 0 0 1 467.07 166.93 L 450.75 201.73 A 235.20 110.88 0 0 0 420.44 199.54 Z" fill="#dbeafe" stroke="#94a3b8" stroke-width="0.75"/>
  <text x="441.4" y="182.8" text-anchor="middle" font-size="7" fill="#0c4a6e" pointer-events="none">456</text>
  <path id="section-457" data-section="457" data-zone="cat-3" d="M 454.08 202.09 L 471.46 167.41 A 310.80 146.52 0 0 1 510.21 173.00 L 483.40 206.33 A 235.20 110.88 0 0 0 454.08 202.09 Z" fill="#dbeafe" stroke="#94a3b8" stroke-width="0.75"/>
  <text x="480.0" y="186.9" text-anchor="middle" font-size="7" fill="#0c4a6e" pointer-events="none">457</text>
  <path id="section-201" data-section="201" data-zone="cat-2" d="M 496.38 364.92 L 544.57 392.38 A 226.80 106.92 0 0 1 531.86 396.99 L 487.91 367.99 A 151.20 71.28 0 0 0 496.38 364.92 Z" fill="#dbeafe" stroke="#94a3b8" stroke-width="0.75"/>
  <text x="515.3" y="380.6" text-anchor="middle" font-size="7" fill="#0c4a6e" pointer-events="none">201</text>
  <path id="section-202" data-section="202" data-zone="cat-2" d="M 486.94 368.32 L 530.41 397.48 A 226.80 106.92 0 0 1 516.98 401.60 L 477.99 371.07 A 151.20 71.28 0 0 0 486.94 368.32 Z" fill="#dbeafe" stroke="#94a3b8" stroke-width="0.75"/>
  <text x="503.1" y="384.7" text-anchor="middle" font-size="7" fill="#0c4a6e" pointer-events="none">202</text>
  <path id="section-203" data-section="203" data-zone="cat-2" d="M 476.97 371.35 L 515.45 402.03 A 226.80 106.92 0 0 1 501.37 405.64 L 467.58 373.76 A 151.20 71.28 0 0 0 476.97 371.35 Z" fill="#dbeafe" stroke="#94a3b8" stroke-width="0.75"/>
  <text x="490.4" y="388.2" text-anchor="middle" font-size="7" fill="#0c4a6e" pointer-events="none">203</text>
  <path id="section-204" data-section="204" data-zone="cat-2" d="M 466.52 374.01 L 499.78 406.02 A 226.80 106.92 0 0 1 485.14 409.10 L 456.76 376.07 A 151.20 71.28 0 0 0 466.52 374.01 Z" fill="#dbeafe" stroke="#94a3b8" stroke-width="0.75"/>
  <text x="477.1" y="391.3" text-anchor="middle" font-size="7" fill="#0c4a6e" pointer-events="none">204</text>
  <path id="section-205" data-section="205" data-zone="cat-2" d="M 455.66 376.27 L 483.49 409.41 A 226.80 106.92 0 0 1 468.39 411.94 L 445.59 377.96 A 151.20 71.28 0 0 0 455.66 376.27 Z" fill="#dbeafe" stroke="#94a3b8" stroke-width="0.75"/>
  <text x="463.3" y="394.0" text-anchor="middle" font-size="7" fill="#0c4a6e" pointer-events="none">205</text>
  <path id="section-206" data-section="206" data-zone="cat-2" d="M 444.46 378.13 L 466.69 412.19 A 226.80 106.92 0 0 1 451.21 414.16 L 434.14 379.44 A 151.20 71.28 0 0 0 444.46 378.13 Z" fill="#dbeafe" stroke="#94a3b8" stroke-width="0.75"/>
  <text x="449.2" y="396.0" text-anchor="middle" font-size="7" fill="#0c4a6e" pointer-events="none">206</text>
  <path id="section-207" data-section="207" data-zone="cat-2" d="M 432.98 379.56 L 449.47 414.35 A 226.80 106.92 0 0 1 433.72 415.73 L 422.48 380.49 A 151.20 71.28 0 0 0 432.98 379.56 Z" fill="#dbeafe" stroke="#94a3b8" stroke-width="0.75"/>
  <text x="434.7" y="397.6" text-anchor="middle" font-size="7" fill="#0c4a6e" pointer-events="none">207</text>
  <path id="section-208" data-section="208" data-zone="cat-1" d="M 421.30 380.57 L 431.96 415.85 A 226.80 106.92 0 0 1 416.02 416.65 L 410.68 381.10 A 151.20 71.28 0 0 0 421.30 380.57 Z" fill="#dbeafe" stroke="#94a3b8" stroke-width="0.75"/>
  <text x="420.0" y="398.6" text-anchor="middle" font-size="7" fill="#0c4a6e" pointer-events="none">208</text>
  <path id="section-209" data-section="209" data-zone="cat-1" d="M 409.49 381.14 L 414.24 416.71 A 226.80 106.92 0 0 1 398.22 416.92 L 398.81 381.28 A 151.20 71.28 0 0 0 409.49 381.14 Z" fill="#dbeafe" stroke="#94a3b8" stroke-width="0.75"/>
  <text x="405.2" y="399.1" text-anchor="middle" font-size="7" fill="#0c4a6e" pointer-events="none">209</text>
  <path id="section-210" data-section="210" data-zone="cat-1" d="M 397.63 381.27 L 396.44 416.91 A 226.80 106.92 0 0 1 380.43 416.52 L 386.95 381.01 A 151.20 71.28 0 0 0 397.63 381.27 Z" fill="#dbeafe" stroke="#94a3b8" stroke-width="0.75"/>
  <text x="390.4" y="399.0" text-anchor="middle" font-size="7" fill="#0c4a6e" pointer-events="none">210</text>
  <path id="section-211" data-section="211" data-zone="cat-1" d="M 385.77 380.96 L 378.66 416.45 A 226.80 106.92 0 0 1 362.76 415.47 L 375.17 380.31 A 151.20 71.28 0 0 0 385.77 380.96 Z" fill="#dbeafe" stroke="#94a3b8" stroke-width="0.75"/>
  <text x="375.6" y="398.4" text-anchor="middle" font-size="7" fill="#0c4a6e" pointer-events="none">211</text>
  <path id="section-212" data-section="212" data-zone="cat-2" d="M 374.00 380.22 L 361.01 415.33 A 226.80 106.92 0 0 1 345.32 413.77 L 363.55 379.18 A 151.20 71.28 0 0 0 374.00 380.22 Z" fill="#dbeafe" stroke="#94a3b8" stroke-width="0.75"/>
  <text x="360.9" y="397.2" text-anchor="middle" font-size="7" fill="#0c4a6e" pointer-events="none">212</text>
  <path id="section-227" data-section="227" data-zone="cat-2" d="M 259.42 283.76 L 189.13 270.64 A 226.80 106.92 0 0 1 196.96 262.36 L 264.64 278.24 A 151.20 71.28 0 0 0 259.42 283.76 Z" fill="#dbeafe" stroke="#94a3b8" stroke-width="0.75"/>
  <text x="227.4" y="273.7" text-anchor="middle" font-size="7" fill="#0c4a6e" pointer-events="none">227</text>
  <path id="section-228" data-section="228" data-zone="cat-2" d="M 265.28 277.64 L 197.92 261.46 A 226.80 106.92 0 0 1 207.37 253.56 L 271.58 272.38 A 151.20 71.28 0 0 0 265.28 277.64 Z" fill="#dbeafe" stroke="#94a3b8" stroke-width="0.75"/>
  <text x="235.4" y="266.2" text-anchor="middle" font-size="7" fill="#0c4a6e" pointer-events="none">228</text>
  <path id="section-229" data-section="229" data-zone="cat-2" d="M 272.34 271.81 L 208.51 252.71 A 226.80 106.92 0 0 1 219.49 245.27 L 279.66 266.84 A 151.20 71.28 0 0 0 272.34 271.81 Z" fill="#dbeafe" stroke="#94a3b8" stroke-width="0.75"/>
  <text x="244.9" y="259.1" text-anchor="middle" font-size="7" fill="#0c4a6e" pointer-events="none">229</text>
  <path id="section-230" data-section="230" data-zone="cat-2" d="M 280.53 266.31 L 220.79 244.47 A 226.80 106.92 0 0 1 233.21 237.55 L 288.81 261.70 A 151.20 71.28 0 0 0 280.53 266.31 Z" fill="#dbeafe" stroke="#94a3b8" stroke-width="0.75"/>
  <text x="255.7" y="252.5" text-anchor="middle" font-size="7" fill="#0c4a6e" pointer-events="none">230</text>
  <path id="section-231" data-section="231" data-zone="cat-2" d="M 289.78 261.21 L 234.67 236.81 A 226.80 106.92 0 0 1 248.42 230.47 L 298.95 256.98 A 151.20 71.28 0 0 0 289.78 261.21 Z" fill="#dbeafe" stroke="#94a3b8" stroke-width="0.75"/>
  <text x="267.8" y="246.3" text-anchor="middle" font-size="7" fill="#0c4a6e" pointer-events="none">231</text>
  <path id="section-232" data-section="232" data-zone="cat-2" d="M 300.01 256.53 L 250.01 229.80 A 226.80 106.92 0 0 1 264.97 224.10 L 309.98 252.73 A 151.20 71.28 0 0 0 300.01 256.53 Z" fill="#dbeafe" stroke="#94a3b8" stroke-width="0.75"/>
  <text x="281.1" y="240.7" text-anchor="middle" font-size="7" fill="#0c4a6e" pointer-events="none">232</text>
  <path id="section-233" data-section="233" data-zone="cat-2" d="M 311.13 252.33 L 266.69 223.50 A 226.80 106.92 0 0 1 282.71 218.49 L 321.81 248.99 A 151.20 71.28 0 0 0 311.13 252.33 Z" fill="#dbeafe" stroke="#94a3b8" stroke-width="0.75"/>
  <text x="295.5" y="235.8" text-anchor="middle" font-size="7" fill="#0c4a6e" pointer-events="none">233</text>
  <path id="section-234" data-section="234" data-zone="cat-2" d="M 323.03 248.65 L 284.55 217.97 A 226.80 106.92 0 0 1 301.50 213.69 L 334.34 245.79 A 151.20 71.28 0 0 0 323.03 248.65 Z" fill="#dbeafe" stroke="#94a3b8" stroke-width="0.75"/>
  <text x="310.8" y="231.5" text-anchor="middle" font-size="7" fill="#0c4a6e" pointer-events="none">234</text>
  <path id="section-235" data-section="235" data-zone="cat-2" d="M 335.62 245.50 L 303.43 213.26 A 226.80 106.92 0 0 1 321.17 209.75 L 347.44 243.16 A 151.20 71.28 0 0 0 335.62 245.50 Z" fill="#dbeafe" stroke="#94a3b8" stroke-width="0.75"/>
  <text x="326.9" y="227.8" text-anchor="middle" font-size="7" fill="#0c4a6e" pointer-events="none">235</text>
  <path id="section-236" data-section="236" data-zone="cat-2" d="M 348.78 242.93 L 323.17 209.40 A 226.80 106.92 0 0 1 341.53 206.69 L 361.02 241.13 A 151.20 71.28 0 0 0 348.78 242.93 Z" fill="#dbeafe" stroke="#94a3b8" stroke-width="0.75"/>
  <text x="343.6" y="225.0" text-anchor="middle" font-size="7" fill="#0c4a6e" pointer-events="none">236</text>
  <path id="section-237" data-section="237" data-zone="cat-2" d="M 362.40 240.96 L 343.60 206.44 A 226.80 106.92 0 0 1 362.41 204.56 L 374.94 239.71 A 151.20 71.28 0 0 0 362.40 240.96 Z" fill="#dbeafe" stroke="#94a3b8" stroke-width="0.75"/>
  <text x="360.8" y="222.8" text-anchor="middle" font-size="7" fill="#0c4a6e" pointer-events="none">237</text>
  <path id="section-238" data-section="238" data-zone="cat-2" d="M 376.35 239.60 L 364.52 204.40 A 226.80 106.92 0 0 1 383.63 203.36 L 389.08 238.91 A 151.20 71.28 0 0 0 376.35 239.60 Z" fill="#dbeafe" stroke="#94a3b8" stroke-width="0.75"/>
  <text x="378.4" y="221.5" text-anchor="middle" font-size="7" fill="#0c4a6e" pointer-events="none">238</text>
</svg>
